<svg width="1431" height="758" viewBox="0 0 1431 758" fill="none" xmlns="http://www.w3.org/2000/svg">
<rect width="2262" height="7147" transform="translate(-24 -3045)" fill="white"/>
<path d="M65.4 55L65.376 38.2H63.408L56.496 50.008L49.488 38.2H47.52V55H49.824V42.832L55.896 52.96H57L63.072 42.76L63.096 55H65.4ZM75.0379 42.16C72.9979 42.16 71.1019 42.736 69.7819 43.792L70.7419 45.52C71.7259 44.68 73.2619 44.152 74.7739 44.152C77.0539 44.152 78.1819 45.28 78.1819 47.224V47.68H74.5339C70.7419 47.68 69.4219 49.36 69.4219 51.4C69.4219 53.608 71.2459 55.144 74.1259 55.144C76.1179 55.144 77.5339 54.472 78.3019 53.32V55H80.4859V47.32C80.4859 43.84 78.5179 42.16 75.0379 42.16ZM74.5099 53.368C72.7579 53.368 71.7019 52.576 71.7019 51.304C71.7019 50.224 72.3499 49.336 74.6299 49.336H78.1819V51.112C77.6059 52.576 76.2379 53.368 74.5099 53.368ZM86.2016 39.832C87.1136 39.832 87.7616 39.16 87.7616 38.296C87.7616 37.48 87.0896 36.832 86.2016 36.832C85.3136 36.832 84.6416 37.504 84.6416 38.344C84.6416 39.184 85.3136 39.832 86.2016 39.832ZM85.0496 55H87.3536V42.28H85.0496V55ZM98.8448 42.16C96.8288 42.16 95.1968 42.904 94.2608 44.2V42.28H92.0528V55H94.3568V48.448C94.3568 45.688 95.9408 44.224 98.3888 44.224C100.573 44.224 101.821 45.448 101.821 47.944V55H104.125V47.68C104.125 43.936 101.941 42.16 98.8448 42.16ZM123.282 55.192C125.898 55.192 128.154 54.28 129.69 52.552L128.13 51.04C126.834 52.408 125.25 53.056 123.402 53.056C119.61 53.056 116.802 50.32 116.802 46.6C116.802 42.88 119.61 40.144 123.402 40.144C125.25 40.144 126.834 40.768 128.13 42.136L129.69 40.624C128.154 38.896 125.898 38.008 123.306 38.008C118.194 38.008 114.402 41.632 114.402 46.6C114.402 51.568 118.194 55.192 123.282 55.192ZM137.987 55.144C141.803 55.144 144.587 52.432 144.587 48.64C144.587 44.848 141.803 42.16 137.987 42.16C134.171 42.16 131.363 44.848 131.363 48.64C131.363 52.432 134.171 55.144 137.987 55.144ZM137.987 53.128C135.539 53.128 133.691 51.352 133.691 48.64C133.691 45.928 135.539 44.176 137.987 44.176C140.435 44.176 142.259 45.928 142.259 48.64C142.259 51.352 140.435 53.128 137.987 53.128ZM148.073 55H150.377V37.192H148.073V55ZM160.524 55.144C164.34 55.144 167.124 52.432 167.124 48.64C167.124 44.848 164.34 42.16 160.524 42.16C156.708 42.16 153.9 44.848 153.9 48.64C153.9 52.432 156.708 55.144 160.524 55.144ZM160.524 53.128C158.076 53.128 156.228 51.352 156.228 48.64C156.228 45.928 158.076 44.176 160.524 44.176C162.972 44.176 164.796 45.928 164.796 48.64C164.796 51.352 162.972 53.128 160.524 53.128ZM172.819 44.416V42.28H170.611V55H172.915V48.664C172.915 45.88 174.451 44.368 176.923 44.368C177.091 44.368 177.259 44.368 177.451 44.392V42.16C175.219 42.16 173.635 42.928 172.819 44.416ZM184.332 55.144C187.716 55.144 189.828 53.68 189.828 51.376C189.828 46.432 181.764 48.88 181.764 45.88C181.764 44.872 182.748 44.128 184.764 44.128C186.012 44.128 187.284 44.392 188.436 45.136L189.42 43.312C188.316 42.592 186.444 42.16 184.788 42.16C181.524 42.16 179.484 43.696 179.484 45.976C179.484 51.04 187.524 48.568 187.524 51.424C187.524 52.504 186.636 53.152 184.5 53.152C182.844 53.152 181.116 52.6 180.036 51.832L179.076 53.656C180.132 54.496 182.22 55.144 184.332 55.144Z" fill="black"/>
<g filter="url(#filter0_d)">
<rect x="47" y="87" width="329" height="240" fill="#162B49"/>
<path d="M84.696 253.272L84.12 257.928H87.456V259.68H83.904L83.376 264H81.672L82.2 259.68H77.664L77.136 264H75.432L75.96 259.68H72.648V257.928H76.176L76.776 253.272H73.416V251.52H76.992L77.52 247.2H79.224L78.696 251.52H83.208L83.736 247.2H85.44L84.912 251.52H88.224V253.272H84.696ZM82.992 253.272H78.48L77.88 257.928H82.416L82.992 253.272ZM95.535 247.2V264H93.159V249.288H89.367V247.2H95.535ZM106.758 253.8C107.862 253.8 108.846 254.008 109.71 254.424C110.59 254.84 111.278 255.44 111.774 256.224C112.27 256.992 112.518 257.88 112.518 258.888C112.518 259.944 112.254 260.872 111.726 261.672C111.214 262.472 110.502 263.096 109.59 263.544C108.694 263.976 107.686 264.192 106.566 264.192C104.31 264.192 102.566 263.464 101.334 262.008C100.118 260.552 99.5098 258.488 99.5098 255.816C99.5098 253.944 99.8378 252.352 100.494 251.04C101.166 249.712 102.094 248.712 103.278 248.04C104.478 247.352 105.87 247.008 107.454 247.008C108.27 247.008 109.038 247.096 109.758 247.272C110.478 247.432 111.102 247.672 111.63 247.992L110.718 249.864C109.918 249.336 108.846 249.072 107.502 249.072C105.758 249.072 104.39 249.616 103.398 250.704C102.406 251.776 101.91 253.344 101.91 255.408C101.91 255.664 101.918 255.864 101.934 256.008C102.414 255.288 103.07 254.744 103.902 254.376C104.75 253.992 105.702 253.8 106.758 253.8ZM106.47 262.248C107.574 262.248 108.47 261.952 109.158 261.36C109.846 260.768 110.19 259.976 110.19 258.984C110.19 257.992 109.838 257.208 109.134 256.632C108.446 256.04 107.518 255.744 106.35 255.744C105.598 255.744 104.926 255.888 104.334 256.176C103.758 256.464 103.302 256.856 102.966 257.352C102.646 257.848 102.486 258.4 102.486 259.008C102.486 259.6 102.638 260.144 102.942 260.64C103.262 261.12 103.718 261.512 104.31 261.816C104.918 262.104 105.638 262.248 106.47 262.248ZM126.43 261.912V264H114.358V262.368L121.198 255.768C122.03 254.968 122.59 254.28 122.878 253.704C123.166 253.112 123.31 252.52 123.31 251.928C123.31 251.048 122.998 250.368 122.374 249.888C121.766 249.392 120.886 249.144 119.734 249.144C117.878 249.144 116.446 249.752 115.438 250.968L113.806 249.552C114.462 248.752 115.318 248.128 116.374 247.68C117.446 247.232 118.638 247.008 119.95 247.008C121.71 247.008 123.11 247.432 124.15 248.28C125.19 249.112 125.71 250.248 125.71 251.688C125.71 252.584 125.518 253.432 125.134 254.232C124.75 255.032 124.022 255.944 122.95 256.968L117.814 261.912H126.43ZM141.376 255.288C142.352 255.56 143.12 256.056 143.68 256.776C144.24 257.48 144.52 258.376 144.52 259.464C144.52 260.92 143.968 262.04 142.864 262.824C141.776 263.608 140.184 264 138.088 264H130.072V247.2H137.608C139.528 247.2 141.008 247.584 142.048 248.352C143.104 249.12 143.632 250.184 143.632 251.544C143.632 252.424 143.424 253.184 143.008 253.824C142.608 254.464 142.064 254.952 141.376 255.288ZM132.472 249.144V254.52H137.392C138.624 254.52 139.568 254.296 140.224 253.848C140.896 253.384 141.232 252.712 141.232 251.832C141.232 250.952 140.896 250.288 140.224 249.84C139.568 249.376 138.624 249.144 137.392 249.144H132.472ZM137.992 262.056C139.352 262.056 140.376 261.832 141.064 261.384C141.752 260.936 142.096 260.232 142.096 259.272C142.096 257.4 140.728 256.464 137.992 256.464H132.472V262.056H137.992ZM161.784 259.872H158.592V264H156.264V259.872H146.928V258.192L155.52 247.2H158.112L149.88 257.808H156.336V254.16H158.592V257.808H161.784V259.872ZM168.806 247.008C171.062 247.008 172.798 247.736 174.014 249.192C175.246 250.648 175.862 252.712 175.862 255.384C175.862 257.256 175.526 258.856 174.854 260.184C174.198 261.496 173.27 262.496 172.07 263.184C170.886 263.856 169.502 264.192 167.918 264.192C167.102 264.192 166.334 264.112 165.614 263.952C164.894 263.776 164.27 263.528 163.742 263.208L164.654 261.336C165.47 261.864 166.55 262.128 167.894 262.128C169.638 262.128 170.998 261.592 171.974 260.52C172.966 259.432 173.462 257.856 173.462 255.792V255.192C172.982 255.912 172.318 256.464 171.47 256.848C170.622 257.216 169.67 257.4 168.614 257.4C167.51 257.4 166.518 257.192 165.638 256.776C164.774 256.36 164.094 255.768 163.598 255C163.118 254.216 162.878 253.32 162.878 252.312C162.878 251.256 163.134 250.328 163.646 249.528C164.174 248.728 164.886 248.112 165.782 247.68C166.678 247.232 167.686 247.008 168.806 247.008ZM169.022 255.456C169.774 255.456 170.446 255.312 171.038 255.024C171.63 254.736 172.086 254.344 172.406 253.848C172.742 253.352 172.91 252.8 172.91 252.192C172.91 251.6 172.75 251.064 172.43 250.584C172.126 250.088 171.67 249.696 171.062 249.408C170.47 249.104 169.75 248.952 168.902 248.952C167.798 248.952 166.902 249.248 166.214 249.84C165.542 250.432 165.206 251.224 165.206 252.216C165.206 253.208 165.55 254 166.238 254.592C166.926 255.168 167.854 255.456 169.022 255.456Z" fill="white"/>
<path d="M81.072 118.2C83.248 118.2 84.96 118.72 86.208 119.76C87.456 120.8 88.08 122.232 88.08 124.056C88.08 125.88 87.456 127.312 86.208 128.352C84.96 129.392 83.248 129.912 81.072 129.912H76.92V135H74.52V118.2H81.072ZM81 127.824C82.52 127.824 83.68 127.504 84.48 126.864C85.28 126.208 85.68 125.272 85.68 124.056C85.68 122.84 85.28 121.912 84.48 121.272C83.68 120.616 82.52 120.288 81 120.288H76.92V127.824H81ZM103.138 135L99.5139 129.84C99.0659 129.872 98.7139 129.888 98.4579 129.888H94.3059V135H91.9059V118.2H98.4579C100.634 118.2 102.346 118.72 103.594 119.76C104.842 120.8 105.466 122.232 105.466 124.056C105.466 125.352 105.146 126.456 104.506 127.368C103.866 128.28 102.954 128.944 101.77 129.36L105.754 135H103.138ZM98.3859 127.848C99.9059 127.848 101.066 127.52 101.866 126.864C102.666 126.208 103.066 125.272 103.066 124.056C103.066 122.84 102.666 121.912 101.866 121.272C101.066 120.616 99.9059 120.288 98.3859 120.288H94.3059V127.848H98.3859ZM109.643 118.2H112.043V135H109.643V118.2ZM132.949 135L132.925 122.76L126.853 132.96H125.749L119.677 122.832V135H117.373V118.2H119.341L126.349 130.008L133.261 118.2H135.229L135.253 135H132.949ZM151.299 130.8H142.371L140.523 135H138.051L145.659 118.2H148.035L155.667 135H153.147L151.299 130.8ZM150.459 128.88L146.835 120.648L143.211 128.88H150.459ZM169.705 135L166.081 129.84C165.633 129.872 165.281 129.888 165.025 129.888H160.873V135H158.473V118.2H165.025C167.201 118.2 168.913 118.72 170.161 119.76C171.409 120.8 172.033 122.232 172.033 124.056C172.033 125.352 171.713 126.456 171.073 127.368C170.433 128.28 169.521 128.944 168.337 129.36L172.321 135H169.705ZM164.953 127.848C166.473 127.848 167.633 127.52 168.433 126.864C169.233 126.208 169.633 125.272 169.633 124.056C169.633 122.84 169.233 121.912 168.433 121.272C167.633 120.616 166.473 120.288 164.953 120.288H160.873V127.848H164.953ZM182.408 129.192V135H180.032V129.144L173.36 118.2H175.928L181.304 127.056L186.704 118.2H189.08L182.408 129.192Z" fill="white"/>
<rect x="377" y="87" width="329" height="240" fill="#006A96"/>
<path d="M414.696 253.272L414.12 257.928H417.456V259.68H413.904L413.376 264H411.672L412.2 259.68H407.664L407.136 264H405.432L405.96 259.68H402.648V257.928H406.176L406.776 253.272H403.416V251.52H406.992L407.52 247.2H409.224L408.696 251.52H413.208L413.736 247.2H415.44L414.912 251.52H418.224V253.272H414.696ZM412.992 253.272H408.48L407.88 257.928H412.416L412.992 253.272ZM427.191 264.192C425.863 264.192 424.679 263.856 423.639 263.184C422.615 262.496 421.807 261.504 421.215 260.208C420.623 258.912 420.327 257.376 420.327 255.6C420.327 253.824 420.623 252.288 421.215 250.992C421.807 249.696 422.615 248.712 423.639 248.04C424.679 247.352 425.863 247.008 427.191 247.008C428.503 247.008 429.671 247.352 430.695 248.04C431.735 248.712 432.551 249.696 433.143 250.992C433.735 252.288 434.031 253.824 434.031 255.6C434.031 257.376 433.735 258.912 433.143 260.208C432.551 261.504 431.735 262.496 430.695 263.184C429.671 263.856 428.503 264.192 427.191 264.192ZM427.191 262.056C428.535 262.056 429.607 261.504 430.407 260.4C431.223 259.296 431.631 257.696 431.631 255.6C431.631 253.504 431.223 251.904 430.407 250.8C429.607 249.696 428.535 249.144 427.191 249.144C425.831 249.144 424.743 249.696 423.927 250.8C423.127 251.904 422.727 253.504 422.727 255.6C422.727 257.696 423.127 259.296 423.927 260.4C424.743 261.504 425.831 262.056 427.191 262.056ZM443.499 264.192C442.171 264.192 440.987 263.856 439.947 263.184C438.923 262.496 438.115 261.504 437.523 260.208C436.931 258.912 436.635 257.376 436.635 255.6C436.635 253.824 436.931 252.288 437.523 250.992C438.115 249.696 438.923 248.712 439.947 248.04C440.987 247.352 442.171 247.008 443.499 247.008C444.811 247.008 445.979 247.352 447.003 248.04C448.043 248.712 448.859 249.696 449.451 250.992C450.043 252.288 450.339 253.824 450.339 255.6C450.339 257.376 450.043 258.912 449.451 260.208C448.859 261.504 448.043 262.496 447.003 263.184C445.979 263.856 444.811 264.192 443.499 264.192ZM443.499 262.056C444.843 262.056 445.915 261.504 446.715 260.4C447.531 259.296 447.939 257.696 447.939 255.6C447.939 253.504 447.531 251.904 446.715 250.8C445.915 249.696 444.843 249.144 443.499 249.144C442.139 249.144 441.051 249.696 440.235 250.8C439.435 251.904 439.035 253.504 439.035 255.6C439.035 257.696 439.435 259.296 440.235 260.4C441.051 261.504 442.139 262.056 443.499 262.056ZM460.191 253.8C461.295 253.8 462.279 254.008 463.143 254.424C464.023 254.84 464.711 255.44 465.207 256.224C465.703 256.992 465.951 257.88 465.951 258.888C465.951 259.944 465.687 260.872 465.159 261.672C464.647 262.472 463.935 263.096 463.023 263.544C462.127 263.976 461.119 264.192 459.999 264.192C457.743 264.192 455.999 263.464 454.767 262.008C453.551 260.552 452.943 258.488 452.943 255.816C452.943 253.944 453.271 252.352 453.927 251.04C454.599 249.712 455.527 248.712 456.711 248.04C457.911 247.352 459.303 247.008 460.887 247.008C461.703 247.008 462.471 247.096 463.191 247.272C463.911 247.432 464.535 247.672 465.063 247.992L464.151 249.864C463.351 249.336 462.279 249.072 460.935 249.072C459.191 249.072 457.823 249.616 456.831 250.704C455.839 251.776 455.343 253.344 455.343 255.408C455.343 255.664 455.351 255.864 455.367 256.008C455.847 255.288 456.503 254.744 457.335 254.376C458.183 253.992 459.135 253.8 460.191 253.8ZM459.903 262.248C461.007 262.248 461.903 261.952 462.591 261.36C463.279 260.768 463.623 259.976 463.623 258.984C463.623 257.992 463.271 257.208 462.567 256.632C461.879 256.04 460.951 255.744 459.783 255.744C459.031 255.744 458.359 255.888 457.767 256.176C457.191 256.464 456.735 256.856 456.399 257.352C456.079 257.848 455.919 258.4 455.919 259.008C455.919 259.6 456.071 260.144 456.375 260.64C456.695 261.12 457.151 261.512 457.743 261.816C458.351 262.104 459.071 262.248 459.903 262.248ZM480.291 259.8H471.363L469.515 264H467.043L474.651 247.2H477.027L484.659 264H482.139L480.291 259.8ZM479.451 257.88L475.827 249.648L472.203 257.88H479.451ZM491.241 247.008C493.497 247.008 495.233 247.736 496.449 249.192C497.681 250.648 498.297 252.712 498.297 255.384C498.297 257.256 497.961 258.856 497.289 260.184C496.633 261.496 495.705 262.496 494.505 263.184C493.321 263.856 491.937 264.192 490.353 264.192C489.537 264.192 488.769 264.112 488.049 263.952C487.329 263.776 486.705 263.528 486.177 263.208L487.089 261.336C487.905 261.864 488.985 262.128 490.329 262.128C492.073 262.128 493.433 261.592 494.409 260.52C495.401 259.432 495.897 257.856 495.897 255.792V255.192C495.417 255.912 494.753 256.464 493.905 256.848C493.057 257.216 492.105 257.4 491.049 257.4C489.945 257.4 488.953 257.192 488.073 256.776C487.209 256.36 486.529 255.768 486.033 255C485.553 254.216 485.313 253.32 485.313 252.312C485.313 251.256 485.569 250.328 486.081 249.528C486.609 248.728 487.321 248.112 488.217 247.68C489.113 247.232 490.121 247.008 491.241 247.008ZM491.457 255.456C492.209 255.456 492.881 255.312 493.473 255.024C494.065 254.736 494.521 254.344 494.841 253.848C495.177 253.352 495.345 252.8 495.345 252.192C495.345 251.6 495.185 251.064 494.865 250.584C494.561 250.088 494.105 249.696 493.497 249.408C492.905 249.104 492.185 248.952 491.337 248.952C490.233 248.952 489.337 249.248 488.649 249.84C487.977 250.432 487.641 251.224 487.641 252.216C487.641 253.208 487.985 254 488.673 254.592C489.361 255.168 490.289 255.456 491.457 255.456ZM508.153 253.8C509.257 253.8 510.241 254.008 511.105 254.424C511.985 254.84 512.673 255.44 513.169 256.224C513.665 256.992 513.913 257.88 513.913 258.888C513.913 259.944 513.649 260.872 513.121 261.672C512.609 262.472 511.897 263.096 510.985 263.544C510.089 263.976 509.081 264.192 507.961 264.192C505.705 264.192 503.961 263.464 502.729 262.008C501.513 260.552 500.905 258.488 500.905 255.816C500.905 253.944 501.233 252.352 501.889 251.04C502.561 249.712 503.489 248.712 504.673 248.04C505.873 247.352 507.265 247.008 508.849 247.008C509.665 247.008 510.433 247.096 511.153 247.272C511.873 247.432 512.497 247.672 513.025 247.992L512.113 249.864C511.313 249.336 510.241 249.072 508.897 249.072C507.153 249.072 505.785 249.616 504.793 250.704C503.801 251.776 503.305 253.344 503.305 255.408C503.305 255.664 503.313 255.864 503.329 256.008C503.809 255.288 504.465 254.744 505.297 254.376C506.145 253.992 507.097 253.8 508.153 253.8ZM507.865 262.248C508.969 262.248 509.865 261.952 510.553 261.36C511.241 260.768 511.585 259.976 511.585 258.984C511.585 257.992 511.233 257.208 510.529 256.632C509.841 256.04 508.913 255.744 507.745 255.744C506.993 255.744 506.321 255.888 505.729 256.176C505.153 256.464 504.697 256.856 504.361 257.352C504.041 257.848 503.881 258.4 503.881 259.008C503.881 259.6 504.033 260.144 504.337 260.64C504.657 261.12 505.113 261.512 505.705 261.816C506.313 262.104 507.033 262.248 507.865 262.248Z" fill="white"/>
<path d="M411.072 118.2C413.248 118.2 414.96 118.72 416.208 119.76C417.456 120.8 418.08 122.232 418.08 124.056C418.08 125.88 417.456 127.312 416.208 128.352C414.96 129.392 413.248 129.912 411.072 129.912H406.92V135H404.52V118.2H411.072ZM411 127.824C412.52 127.824 413.68 127.504 414.48 126.864C415.28 126.208 415.68 125.272 415.68 124.056C415.68 122.84 415.28 121.912 414.48 121.272C413.68 120.616 412.52 120.288 411 120.288H406.92V127.824H411ZM433.138 135L429.514 129.84C429.066 129.872 428.714 129.888 428.458 129.888H424.306V135H421.906V118.2H428.458C430.634 118.2 432.346 118.72 433.594 119.76C434.842 120.8 435.466 122.232 435.466 124.056C435.466 125.352 435.146 126.456 434.506 127.368C433.866 128.28 432.954 128.944 431.77 129.36L435.754 135H433.138ZM428.386 127.848C429.906 127.848 431.066 127.52 431.866 126.864C432.666 126.208 433.066 125.272 433.066 124.056C433.066 122.84 432.666 121.912 431.866 121.272C431.066 120.616 429.906 120.288 428.386 120.288H424.306V127.848H428.386ZM439.643 118.2H442.043V135H439.643V118.2ZM462.949 135L462.925 122.76L456.853 132.96H455.749L449.677 122.832V135H447.373V118.2H449.341L456.349 130.008L463.261 118.2H465.229L465.253 135H462.949ZM481.299 130.8H472.371L470.523 135H468.051L475.659 118.2H478.035L485.667 135H483.147L481.299 130.8ZM480.459 128.88L476.835 120.648L473.211 128.88H480.459ZM499.705 135L496.081 129.84C495.633 129.872 495.281 129.888 495.025 129.888H490.873V135H488.473V118.2H495.025C497.201 118.2 498.913 118.72 500.161 119.76C501.409 120.8 502.033 122.232 502.033 124.056C502.033 125.352 501.713 126.456 501.073 127.368C500.433 128.28 499.521 128.944 498.337 129.36L502.321 135H499.705ZM494.953 127.848C496.473 127.848 497.633 127.52 498.433 126.864C499.233 126.208 499.633 125.272 499.633 124.056C499.633 122.84 499.233 121.912 498.433 121.272C497.633 120.616 496.473 120.288 494.953 120.288H490.873V127.848H494.953ZM512.408 129.192V135H510.032V129.144L503.36 118.2H505.928L511.304 127.056L516.704 118.2H519.08L512.408 129.192ZM543.153 118.2L535.785 135H533.409L526.017 118.2H528.609L534.657 132L540.753 118.2H543.153ZM555.76 130.8H546.832L544.984 135H542.512L550.12 118.2H552.496L560.128 135H557.608L555.76 130.8ZM554.92 128.88L551.296 120.648L547.672 128.88H554.92ZM574.166 135L570.542 129.84C570.094 129.872 569.742 129.888 569.486 129.888H565.334V135H562.934V118.2H569.486C571.662 118.2 573.374 118.72 574.622 119.76C575.87 120.8 576.494 122.232 576.494 124.056C576.494 125.352 576.174 126.456 575.534 127.368C574.894 128.28 573.982 128.944 572.798 129.36L576.782 135H574.166ZM569.414 127.848C570.934 127.848 572.094 127.52 572.894 126.864C573.694 126.208 574.094 125.272 574.094 124.056C574.094 122.84 573.694 121.912 572.894 121.272C572.094 120.616 570.934 120.288 569.414 120.288H565.334V127.848H569.414ZM580.672 118.2H583.072V135H580.672V118.2ZM599.105 130.8H590.177L588.329 135H585.857L593.465 118.2H595.841L603.473 135H600.953L599.105 130.8ZM598.265 128.88L594.641 120.648L591.017 128.88H598.265ZM620.727 118.2V135H618.759L608.679 122.472V135H606.279V118.2H608.247L618.327 130.728V118.2H620.727ZM629.392 120.288H623.632V118.2H637.528V120.288H631.768V135H629.392V120.288Z" fill="white"/>
<path d="M410.072 283.2H403.52V300H405.92V294.912H410.072C414.44 294.912 417.08 292.704 417.08 289.056C417.08 285.408 414.44 283.2 410.072 283.2ZM410 292.824H405.92V285.288H410C413.072 285.288 414.68 286.656 414.68 289.056C414.68 291.456 413.072 292.824 410 292.824ZM425.085 287.16C423.045 287.16 421.149 287.736 419.829 288.792L420.789 290.52C421.773 289.68 423.309 289.152 424.821 289.152C427.101 289.152 428.229 290.28 428.229 292.224V292.68H424.581C420.789 292.68 419.469 294.36 419.469 296.4C419.469 298.608 421.293 300.144 424.173 300.144C426.165 300.144 427.581 299.472 428.349 298.32V300H430.533V292.32C430.533 288.84 428.565 287.16 425.085 287.16ZM424.557 298.368C422.805 298.368 421.749 297.576 421.749 296.304C421.749 295.224 422.397 294.336 424.677 294.336H428.229V296.112C427.653 297.576 426.285 298.368 424.557 298.368ZM441.889 287.16C439.873 287.16 438.241 287.904 437.305 289.2V287.28H435.097V300H437.401V293.448C437.401 290.688 438.985 289.224 441.433 289.224C443.617 289.224 444.865 290.448 444.865 292.944V300H447.169V292.68C447.169 288.936 444.985 287.16 441.889 287.16ZM458.164 297.6C457.684 297.984 457.036 298.2 456.364 298.2C455.092 298.2 454.372 297.432 454.372 296.064V289.176H458.02V287.28H454.372V284.496H452.068V287.28H449.908V289.176H452.068V296.16C452.068 298.728 453.532 300.144 456.1 300.144C457.132 300.144 458.188 299.856 458.884 299.256L458.164 297.6ZM466.996 300.144C470.812 300.144 473.596 297.432 473.596 293.64C473.596 289.848 470.812 287.16 466.996 287.16C463.18 287.16 460.372 289.848 460.372 293.64C460.372 297.432 463.18 300.144 466.996 300.144ZM466.996 298.128C464.548 298.128 462.7 296.352 462.7 293.64C462.7 290.928 464.548 289.176 466.996 289.176C469.444 289.176 471.268 290.928 471.268 293.64C471.268 296.352 469.444 298.128 466.996 298.128ZM483.874 287.16C481.858 287.16 480.226 287.904 479.29 289.2V287.28H477.082V300H479.386V293.448C479.386 290.688 480.97 289.224 483.418 289.224C485.602 289.224 486.85 290.448 486.85 292.944V300H489.154V292.68C489.154 288.936 486.97 287.16 483.874 287.16ZM505.285 293.712C505.285 289.8 502.669 287.16 498.997 287.16C495.325 287.16 492.613 289.872 492.613 293.64C492.613 297.432 495.349 300.144 499.453 300.144C501.565 300.144 503.317 299.424 504.469 298.08L503.197 296.592C502.261 297.624 501.013 298.128 499.525 298.128C497.005 298.128 495.205 296.64 494.917 294.408H505.237C505.261 294.192 505.285 293.904 505.285 293.712ZM498.997 289.104C501.229 289.104 502.837 290.616 503.077 292.752H494.917C495.157 290.592 496.789 289.104 498.997 289.104ZM520.929 290.256L525.321 284.832V283.2H514.233V285.288H522.321L518.097 290.472V292.152H519.441C522.321 292.152 523.593 293.304 523.593 295.08C523.593 296.904 522.153 298.056 519.633 298.056C517.569 298.056 515.697 297.312 514.569 296.256L513.465 298.152C514.881 299.424 517.233 300.192 519.633 300.192C523.905 300.192 525.993 297.888 525.993 295.056C525.993 292.464 524.289 290.568 520.929 290.256ZM535.396 300.192C539.308 300.192 542.236 297.072 542.236 291.6C542.236 286.128 539.308 283.008 535.396 283.008C531.46 283.008 528.532 286.128 528.532 291.6C528.532 297.072 531.46 300.192 535.396 300.192ZM535.396 298.056C532.756 298.056 530.932 295.896 530.932 291.6C530.932 287.304 532.756 285.144 535.396 285.144C538.012 285.144 539.836 287.304 539.836 291.6C539.836 295.896 538.012 298.056 535.396 298.056ZM543.809 283.2V285.288H547.601V300H549.977V283.2H543.809ZM558.752 289.896H556.88L557.336 285.288H564.8V283.2H555.32L554.432 291.984H558.248C562.136 291.984 563.336 293.16 563.336 295.056C563.336 296.88 561.896 298.056 559.352 298.056C557.312 298.056 555.44 297.312 554.312 296.256L553.208 298.152C554.648 299.424 557 300.192 559.376 300.192C563.672 300.192 565.736 297.864 565.736 294.96C565.736 291.984 563.768 289.896 558.752 289.896Z" fill="white"/>
<rect x="707" y="87" width="329" height="240" fill="white"/>
<rect x="1037" y="87" width="329" height="240" fill="#FECE07"/>
<path d="M744.696 253.272L744.12 257.928H747.456V259.68H743.904L743.376 264H741.672L742.2 259.68H737.664L737.136 264H735.432L735.96 259.68H732.648V257.928H736.176L736.776 253.272H733.416V251.52H736.992L737.52 247.2H739.224L738.696 251.52H743.208L743.736 247.2H745.44L744.912 251.52H748.224V253.272H744.696ZM742.992 253.272H738.48L737.88 257.928H742.416L742.992 253.272ZM754.095 249.288V255.144H762.519V257.208H754.095V264H751.695V247.2H763.551V249.288H754.095ZM769.629 249.288V255.144H778.053V257.208H769.629V264H767.229V247.2H779.085V249.288H769.629ZM785.164 249.288V255.144H793.588V257.208H785.164V264H782.764V247.2H794.62V249.288H785.164ZM800.698 249.288V255.144H809.122V257.208H800.698V264H798.298V247.2H810.154V249.288H800.698ZM816.233 249.288V255.144H824.657V257.208H816.233V264H813.833V247.2H825.689V249.288H816.233ZM831.767 249.288V255.144H840.191V257.208H831.767V264H829.367V247.2H841.223V249.288H831.767Z" fill="#303030"/>
<path d="M745.824 126.288C746.8 126.56 747.568 127.056 748.128 127.776C748.688 128.48 748.968 129.376 748.968 130.464C748.968 131.92 748.416 133.04 747.312 133.824C746.224 134.608 744.632 135 742.536 135H734.52V118.2H742.056C743.976 118.2 745.456 118.584 746.496 119.352C747.552 120.12 748.08 121.184 748.08 122.544C748.08 123.424 747.872 124.184 747.456 124.824C747.056 125.464 746.512 125.952 745.824 126.288ZM736.92 120.144V125.52H741.84C743.072 125.52 744.016 125.296 744.672 124.848C745.344 124.384 745.68 123.712 745.68 122.832C745.68 121.952 745.344 121.288 744.672 120.84C744.016 120.376 743.072 120.144 741.84 120.144H736.92ZM742.44 133.056C743.8 133.056 744.824 132.832 745.512 132.384C746.2 131.936 746.544 131.232 746.544 130.272C746.544 128.4 745.176 127.464 742.44 127.464H736.92V133.056H742.44ZM763.688 130.8H754.76L752.912 135H750.44L758.048 118.2H760.424L768.056 135H765.536L763.688 130.8ZM762.848 128.88L759.224 120.648L755.6 128.88H762.848ZM778.14 135.192C776.46 135.192 774.94 134.824 773.58 134.088C772.236 133.336 771.18 132.312 770.412 131.016C769.644 129.704 769.26 128.232 769.26 126.6C769.26 124.968 769.644 123.504 770.412 122.208C771.18 120.896 772.244 119.872 773.604 119.136C774.964 118.384 776.484 118.008 778.164 118.008C779.476 118.008 780.676 118.232 781.764 118.68C782.852 119.112 783.78 119.76 784.548 120.624L782.988 122.136C781.724 120.808 780.148 120.144 778.26 120.144C777.012 120.144 775.884 120.424 774.876 120.984C773.868 121.544 773.076 122.32 772.5 123.312C771.94 124.288 771.66 125.384 771.66 126.6C771.66 127.816 771.94 128.92 772.5 129.912C773.076 130.888 773.868 131.656 774.876 132.216C775.884 132.776 777.012 133.056 778.26 133.056C780.132 133.056 781.708 132.384 782.988 131.04L784.548 132.552C783.78 133.416 782.844 134.072 781.74 134.52C780.652 134.968 779.452 135.192 778.14 135.192ZM793.744 127.536L790.672 130.656V135H788.272V118.2H790.672V127.584L799.792 118.2H802.528L795.352 125.76L802.984 135H800.176L793.744 127.536ZM816.852 126.504H819.156V133.056C818.324 133.744 817.356 134.272 816.252 134.64C815.148 135.008 813.996 135.192 812.796 135.192C811.1 135.192 809.572 134.824 808.212 134.088C806.852 133.336 805.78 132.312 804.996 131.016C804.228 129.704 803.844 128.232 803.844 126.6C803.844 124.968 804.228 123.496 804.996 122.184C805.78 120.872 806.852 119.848 808.212 119.112C809.588 118.376 811.132 118.008 812.844 118.008C814.188 118.008 815.404 118.232 816.492 118.68C817.596 119.112 818.532 119.752 819.3 120.6L817.812 122.088C816.468 120.792 814.844 120.144 812.94 120.144C811.66 120.144 810.508 120.424 809.484 120.984C808.476 121.528 807.684 122.296 807.108 123.288C806.532 124.264 806.244 125.368 806.244 126.6C806.244 127.816 806.532 128.92 807.108 129.912C807.684 130.888 808.476 131.656 809.484 132.216C810.508 132.776 811.652 133.056 812.916 133.056C814.42 133.056 815.732 132.696 816.852 131.976V126.504ZM835.283 135L831.659 129.84C831.211 129.872 830.859 129.888 830.603 129.888H826.451V135H824.051V118.2H830.603C832.779 118.2 834.491 118.72 835.739 119.76C836.987 120.8 837.611 122.232 837.611 124.056C837.611 125.352 837.291 126.456 836.651 127.368C836.011 128.28 835.099 128.944 833.915 129.36L837.899 135H835.283ZM830.531 127.848C832.051 127.848 833.211 127.52 834.011 126.864C834.811 126.208 835.211 125.272 835.211 124.056C835.211 122.84 834.811 121.912 834.011 121.272C833.211 120.616 832.051 120.288 830.531 120.288H826.451V127.848H830.531ZM849.373 135.192C847.677 135.192 846.149 134.824 844.789 134.088C843.429 133.336 842.357 132.304 841.573 130.992C840.805 129.68 840.421 128.216 840.421 126.6C840.421 124.984 840.805 123.52 841.573 122.208C842.357 120.896 843.429 119.872 844.789 119.136C846.149 118.384 847.677 118.008 849.373 118.008C851.053 118.008 852.573 118.384 853.933 119.136C855.293 119.872 856.357 120.896 857.125 122.208C857.893 123.504 858.277 124.968 858.277 126.6C858.277 128.232 857.893 129.704 857.125 131.016C856.357 132.312 855.293 133.336 853.933 134.088C852.573 134.824 851.053 135.192 849.373 135.192ZM849.373 133.056C850.605 133.056 851.709 132.776 852.685 132.216C853.677 131.656 854.453 130.888 855.013 129.912C855.589 128.92 855.877 127.816 855.877 126.6C855.877 125.384 855.589 124.288 855.013 123.312C854.453 122.32 853.677 121.544 852.685 120.984C851.709 120.424 850.605 120.144 849.373 120.144C848.141 120.144 847.021 120.424 846.013 120.984C845.021 121.544 844.237 122.32 843.661 123.312C843.101 124.288 842.821 125.384 842.821 126.6C842.821 127.816 843.101 128.92 843.661 129.912C844.237 130.888 845.021 131.656 846.013 132.216C847.021 132.776 848.141 133.056 849.373 133.056ZM869.205 135.192C866.965 135.192 865.221 134.552 863.973 133.272C862.725 131.992 862.101 130.152 862.101 127.752V118.2H864.501V127.656C864.501 131.256 866.077 133.056 869.229 133.056C870.765 133.056 871.941 132.616 872.757 131.736C873.573 130.84 873.981 129.48 873.981 127.656V118.2H876.309V127.752C876.309 130.168 875.685 132.016 874.437 133.296C873.189 134.56 871.445 135.192 869.205 135.192ZM895.977 118.2V135H894.009L883.929 122.472V135H881.529V118.2H883.497L893.577 130.728V118.2H895.977ZM901.306 118.2H908.386C910.162 118.2 911.738 118.552 913.114 119.256C914.49 119.96 915.554 120.952 916.306 122.232C917.074 123.496 917.458 124.952 917.458 126.6C917.458 128.248 917.074 129.712 916.306 130.992C915.554 132.256 914.49 133.24 913.114 133.944C911.738 134.648 910.162 135 908.386 135H901.306V118.2ZM908.242 132.912C909.602 132.912 910.794 132.648 911.818 132.12C912.858 131.592 913.658 130.856 914.218 129.912C914.778 128.952 915.058 127.848 915.058 126.6C915.058 125.352 914.778 124.256 914.218 123.312C913.658 122.352 912.858 121.608 911.818 121.08C910.794 120.552 909.602 120.288 908.242 120.288H903.706V132.912H908.242Z" fill="#303030"/>
<path d="M741.032 300.192C743.648 300.192 745.904 299.28 747.44 297.552L745.88 296.04C744.584 297.408 743 298.056 741.152 298.056C737.36 298.056 734.552 295.32 734.552 291.6C734.552 287.88 737.36 285.144 741.152 285.144C743 285.144 744.584 285.768 745.88 287.136L747.44 285.624C745.904 283.896 743.648 283.008 741.056 283.008C735.944 283.008 732.152 286.632 732.152 291.6C732.152 296.568 735.944 300.192 741.032 300.192ZM758.396 300.192C763.508 300.192 767.3 296.544 767.3 291.6C767.3 286.656 763.508 283.008 758.396 283.008C753.236 283.008 749.444 286.68 749.444 291.6C749.444 296.52 753.236 300.192 758.396 300.192ZM758.396 298.056C754.628 298.056 751.844 295.32 751.844 291.6C751.844 287.88 754.628 285.144 758.396 285.144C762.116 285.144 764.9 287.88 764.9 291.6C764.9 295.32 762.116 298.056 758.396 298.056ZM774.37 300H776.746V285.288H782.506V283.2H768.61V285.288H774.37V300ZM788.99 300H791.366V285.288H797.126V283.2H783.23V285.288H788.99V300ZM807.39 300.192C812.502 300.192 816.294 296.544 816.294 291.6C816.294 286.656 812.502 283.008 807.39 283.008C802.23 283.008 798.438 286.68 798.438 291.6C798.438 296.52 802.23 300.192 807.39 300.192ZM807.39 298.056C803.622 298.056 800.838 295.32 800.838 291.6C800.838 287.88 803.622 285.144 807.39 285.144C811.11 285.144 813.894 287.88 813.894 291.6C813.894 295.32 811.11 298.056 807.39 298.056ZM832.31 283.2V295.728L822.23 283.2H820.262V300H822.662V287.472L832.742 300H834.71V283.2H832.31ZM868.24 283.2L863.608 296.928L858.976 283.2H856.768L852.04 296.856L847.504 283.2H845.032L850.648 300H853.216L857.8 286.584L862.384 300H864.904L870.52 283.2H868.24ZM885.804 283.2V290.424H876.156V283.2H873.756V300H876.156V292.512H885.804V300H888.204V283.2H885.804ZM893.532 300H895.932V283.2H893.532V300ZM904.598 300H906.974V285.288H912.734V283.2H898.838V285.288H904.598V300ZM918.048 297.912V292.488H926.472V290.448H918.048V285.288H927.504V283.2H915.648V300H927.84V297.912H918.048Z" fill="#303030"/>
<path d="M1072.7 253.272L1072.12 257.928H1075.46V259.68H1071.9L1071.38 264H1069.67L1070.2 259.68H1065.66L1065.14 264H1063.43L1063.96 259.68H1060.65V257.928H1064.18L1064.78 253.272H1061.42V251.52H1064.99L1065.52 247.2H1067.22L1066.7 251.52H1071.21L1071.74 247.2H1073.44L1072.91 251.52H1076.22V253.272H1072.7ZM1070.99 253.272H1066.48L1065.88 257.928H1070.42L1070.99 253.272ZM1085.19 264.192C1083.86 264.192 1082.68 263.856 1081.64 263.184C1080.61 262.496 1079.81 261.504 1079.21 260.208C1078.62 258.912 1078.33 257.376 1078.33 255.6C1078.33 253.824 1078.62 252.288 1079.21 250.992C1079.81 249.696 1080.61 248.712 1081.64 248.04C1082.68 247.352 1083.86 247.008 1085.19 247.008C1086.5 247.008 1087.67 247.352 1088.69 248.04C1089.73 248.712 1090.55 249.696 1091.14 250.992C1091.73 252.288 1092.03 253.824 1092.03 255.6C1092.03 257.376 1091.73 258.912 1091.14 260.208C1090.55 261.504 1089.73 262.496 1088.69 263.184C1087.67 263.856 1086.5 264.192 1085.19 264.192ZM1085.19 262.056C1086.53 262.056 1087.61 261.504 1088.41 260.4C1089.22 259.296 1089.63 257.696 1089.63 255.6C1089.63 253.504 1089.22 251.904 1088.41 250.8C1087.61 249.696 1086.53 249.144 1085.19 249.144C1083.83 249.144 1082.74 249.696 1081.93 250.8C1081.13 251.904 1080.73 253.504 1080.73 255.6C1080.73 257.696 1081.13 259.296 1081.93 260.4C1082.74 261.504 1083.83 262.056 1085.19 262.056ZM1101.5 264.192C1100.17 264.192 1098.99 263.856 1097.95 263.184C1096.92 262.496 1096.11 261.504 1095.52 260.208C1094.93 258.912 1094.63 257.376 1094.63 255.6C1094.63 253.824 1094.93 252.288 1095.52 250.992C1096.11 249.696 1096.92 248.712 1097.95 248.04C1098.99 247.352 1100.17 247.008 1101.5 247.008C1102.81 247.008 1103.98 247.352 1105 248.04C1106.04 248.712 1106.86 249.696 1107.45 250.992C1108.04 252.288 1108.34 253.824 1108.34 255.6C1108.34 257.376 1108.04 258.912 1107.45 260.208C1106.86 261.504 1106.04 262.496 1105 263.184C1103.98 263.856 1102.81 264.192 1101.5 264.192ZM1101.5 262.056C1102.84 262.056 1103.91 261.504 1104.71 260.4C1105.53 259.296 1105.94 257.696 1105.94 255.6C1105.94 253.504 1105.53 251.904 1104.71 250.8C1103.91 249.696 1102.84 249.144 1101.5 249.144C1100.14 249.144 1099.05 249.696 1098.23 250.8C1097.43 251.904 1097.03 253.504 1097.03 255.6C1097.03 257.696 1097.43 259.296 1098.23 260.4C1099.05 261.504 1100.14 262.056 1101.5 262.056ZM1118.19 253.8C1119.29 253.8 1120.28 254.008 1121.14 254.424C1122.02 254.84 1122.71 255.44 1123.21 256.224C1123.7 256.992 1123.95 257.88 1123.95 258.888C1123.95 259.944 1123.69 260.872 1123.16 261.672C1122.65 262.472 1121.93 263.096 1121.02 263.544C1120.13 263.976 1119.12 264.192 1118 264.192C1115.74 264.192 1114 263.464 1112.77 262.008C1111.55 260.552 1110.94 258.488 1110.94 255.816C1110.94 253.944 1111.27 252.352 1111.93 251.04C1112.6 249.712 1113.53 248.712 1114.71 248.04C1115.91 247.352 1117.3 247.008 1118.89 247.008C1119.7 247.008 1120.47 247.096 1121.19 247.272C1121.91 247.432 1122.53 247.672 1123.06 247.992L1122.15 249.864C1121.35 249.336 1120.28 249.072 1118.93 249.072C1117.19 249.072 1115.82 249.616 1114.83 250.704C1113.84 251.776 1113.34 253.344 1113.34 255.408C1113.34 255.664 1113.35 255.864 1113.37 256.008C1113.85 255.288 1114.5 254.744 1115.33 254.376C1116.18 253.992 1117.13 253.8 1118.19 253.8ZM1117.9 262.248C1119.01 262.248 1119.9 261.952 1120.59 261.36C1121.28 260.768 1121.62 259.976 1121.62 258.984C1121.62 257.992 1121.27 257.208 1120.57 256.632C1119.88 256.04 1118.95 255.744 1117.78 255.744C1117.03 255.744 1116.36 255.888 1115.77 256.176C1115.19 256.464 1114.73 256.856 1114.4 257.352C1114.08 257.848 1113.92 258.4 1113.92 259.008C1113.92 259.6 1114.07 260.144 1114.37 260.64C1114.69 261.12 1115.15 261.512 1115.74 261.816C1116.35 262.104 1117.07 262.248 1117.9 262.248ZM1138.29 259.8H1129.36L1127.52 264H1125.04L1132.65 247.2H1135.03L1142.66 264H1140.14L1138.29 259.8ZM1137.45 257.88L1133.83 249.648L1130.2 257.88H1137.45ZM1149.24 247.008C1151.5 247.008 1153.23 247.736 1154.45 249.192C1155.68 250.648 1156.3 252.712 1156.3 255.384C1156.3 257.256 1155.96 258.856 1155.29 260.184C1154.63 261.496 1153.7 262.496 1152.5 263.184C1151.32 263.856 1149.94 264.192 1148.35 264.192C1147.54 264.192 1146.77 264.112 1146.05 263.952C1145.33 263.776 1144.7 263.528 1144.18 263.208L1145.09 261.336C1145.9 261.864 1146.98 262.128 1148.33 262.128C1150.07 262.128 1151.43 261.592 1152.41 260.52C1153.4 259.432 1153.9 257.856 1153.9 255.792V255.192C1153.42 255.912 1152.75 256.464 1151.9 256.848C1151.06 257.216 1150.1 257.4 1149.05 257.4C1147.94 257.4 1146.95 257.192 1146.07 256.776C1145.21 256.36 1144.53 255.768 1144.03 255C1143.55 254.216 1143.31 253.32 1143.31 252.312C1143.31 251.256 1143.57 250.328 1144.08 249.528C1144.61 248.728 1145.32 248.112 1146.22 247.68C1147.11 247.232 1148.12 247.008 1149.24 247.008ZM1149.46 255.456C1150.21 255.456 1150.88 255.312 1151.47 255.024C1152.06 254.736 1152.52 254.344 1152.84 253.848C1153.18 253.352 1153.34 252.8 1153.34 252.192C1153.34 251.6 1153.18 251.064 1152.86 250.584C1152.56 250.088 1152.1 249.696 1151.5 249.408C1150.9 249.104 1150.18 248.952 1149.34 248.952C1148.23 248.952 1147.34 249.248 1146.65 249.84C1145.98 250.432 1145.64 251.224 1145.64 252.216C1145.64 253.208 1145.98 254 1146.67 254.592C1147.36 255.168 1148.29 255.456 1149.46 255.456ZM1166.15 253.8C1167.26 253.8 1168.24 254.008 1169.11 254.424C1169.99 254.84 1170.67 255.44 1171.17 256.224C1171.67 256.992 1171.91 257.88 1171.91 258.888C1171.91 259.944 1171.65 260.872 1171.12 261.672C1170.61 262.472 1169.9 263.096 1168.99 263.544C1168.09 263.976 1167.08 264.192 1165.96 264.192C1163.71 264.192 1161.96 263.464 1160.73 262.008C1159.51 260.552 1158.91 258.488 1158.91 255.816C1158.91 253.944 1159.23 252.352 1159.89 251.04C1160.56 249.712 1161.49 248.712 1162.67 248.04C1163.87 247.352 1165.27 247.008 1166.85 247.008C1167.67 247.008 1168.43 247.096 1169.15 247.272C1169.87 247.432 1170.5 247.672 1171.03 247.992L1170.11 249.864C1169.31 249.336 1168.24 249.072 1166.9 249.072C1165.15 249.072 1163.79 249.616 1162.79 250.704C1161.8 251.776 1161.31 253.344 1161.31 255.408C1161.31 255.664 1161.31 255.864 1161.33 256.008C1161.81 255.288 1162.47 254.744 1163.3 254.376C1164.15 253.992 1165.1 253.8 1166.15 253.8ZM1165.87 262.248C1166.97 262.248 1167.87 261.952 1168.55 261.36C1169.24 260.768 1169.59 259.976 1169.59 258.984C1169.59 257.992 1169.23 257.208 1168.53 256.632C1167.84 256.04 1166.91 255.744 1165.75 255.744C1164.99 255.744 1164.32 255.888 1163.73 256.176C1163.15 256.464 1162.7 256.856 1162.36 257.352C1162.04 257.848 1161.88 258.4 1161.88 259.008C1161.88 259.6 1162.03 260.144 1162.34 260.64C1162.66 261.12 1163.11 261.512 1163.71 261.816C1164.31 262.104 1165.03 262.248 1165.87 262.248Z" fill="#303030"/>
<path d="M1073.22 130.8H1064.3L1062.45 135H1059.98L1067.58 118.2H1069.96L1077.59 135H1075.07L1073.22 130.8ZM1072.38 128.88L1068.76 120.648L1065.14 128.88H1072.38ZM1087.68 135.192C1086 135.192 1084.48 134.824 1083.12 134.088C1081.77 133.336 1080.72 132.312 1079.95 131.016C1079.18 129.704 1078.8 128.232 1078.8 126.6C1078.8 124.968 1079.18 123.504 1079.95 122.208C1080.72 120.896 1081.78 119.872 1083.14 119.136C1084.5 118.384 1086.02 118.008 1087.7 118.008C1089.01 118.008 1090.21 118.232 1091.3 118.68C1092.39 119.112 1093.32 119.76 1094.08 120.624L1092.52 122.136C1091.26 120.808 1089.68 120.144 1087.8 120.144C1086.55 120.144 1085.42 120.424 1084.41 120.984C1083.4 121.544 1082.61 122.32 1082.04 123.312C1081.48 124.288 1081.2 125.384 1081.2 126.6C1081.2 127.816 1081.48 128.92 1082.04 129.912C1082.61 130.888 1083.4 131.656 1084.41 132.216C1085.42 132.776 1086.55 133.056 1087.8 133.056C1089.67 133.056 1091.24 132.384 1092.52 131.04L1094.08 132.552C1093.32 133.416 1092.38 134.072 1091.28 134.52C1090.19 134.968 1088.99 135.192 1087.68 135.192ZM1104.97 135.192C1103.29 135.192 1101.77 134.824 1100.41 134.088C1099.06 133.336 1098.01 132.312 1097.24 131.016C1096.47 129.704 1096.09 128.232 1096.09 126.6C1096.09 124.968 1096.47 123.504 1097.24 122.208C1098.01 120.896 1099.07 119.872 1100.43 119.136C1101.79 118.384 1103.31 118.008 1104.99 118.008C1106.3 118.008 1107.5 118.232 1108.59 118.68C1109.68 119.112 1110.61 119.76 1111.38 120.624L1109.82 122.136C1108.55 120.808 1106.98 120.144 1105.09 120.144C1103.84 120.144 1102.71 120.424 1101.7 120.984C1100.7 121.544 1099.9 122.32 1099.33 123.312C1098.77 124.288 1098.49 125.384 1098.49 126.6C1098.49 127.816 1098.77 128.92 1099.33 129.912C1099.9 130.888 1100.7 131.656 1101.7 132.216C1102.71 132.776 1103.84 133.056 1105.09 133.056C1106.96 133.056 1108.54 132.384 1109.82 131.04L1111.38 132.552C1110.61 133.416 1109.67 134.072 1108.57 134.52C1107.48 134.968 1106.28 135.192 1104.97 135.192ZM1127.29 132.912V135H1115.1V118.2H1126.96V120.288H1117.5V125.448H1125.92V127.488H1117.5V132.912H1127.29ZM1145.93 118.2V135H1143.96L1133.88 122.472V135H1131.48V118.2H1133.45L1143.53 130.728V118.2H1145.93ZM1154.59 120.288H1148.83V118.2H1162.73V120.288H1156.97V135H1154.59V120.288Z" fill="#303030"/>
<path d="M1068.07 283.2C1070.25 283.2 1071.96 283.72 1073.21 284.76C1074.46 285.8 1075.08 287.232 1075.08 289.056C1075.08 290.88 1074.46 292.312 1073.21 293.352C1071.96 294.392 1070.25 294.912 1068.07 294.912H1063.92V300H1061.52V283.2H1068.07ZM1068 292.824C1069.52 292.824 1070.68 292.504 1071.48 291.864C1072.28 291.208 1072.68 290.272 1072.68 289.056C1072.68 287.84 1072.28 286.912 1071.48 286.272C1070.68 285.616 1069.52 285.288 1068 285.288H1063.92V292.824H1068ZM1083.08 287.16C1084.84 287.16 1086.19 287.592 1087.12 288.456C1088.06 289.32 1088.53 290.608 1088.53 292.32V300H1086.35V298.32C1085.96 298.912 1085.41 299.368 1084.69 299.688C1083.99 299.992 1083.15 300.144 1082.17 300.144C1080.75 300.144 1079.6 299.8 1078.74 299.112C1077.89 298.424 1077.47 297.52 1077.47 296.4C1077.47 295.28 1077.88 294.384 1078.69 293.712C1079.51 293.024 1080.8 292.68 1082.58 292.68H1086.23V292.224C1086.23 291.232 1085.94 290.472 1085.36 289.944C1084.79 289.416 1083.94 289.152 1082.82 289.152C1082.07 289.152 1081.33 289.28 1080.61 289.536C1079.89 289.776 1079.28 290.104 1078.79 290.52L1077.83 288.792C1078.48 288.264 1079.27 287.864 1080.18 287.592C1081.09 287.304 1082.06 287.16 1083.08 287.16ZM1082.56 298.368C1083.44 298.368 1084.2 298.176 1084.84 297.792C1085.48 297.392 1085.94 296.832 1086.23 296.112V294.336H1082.68C1080.72 294.336 1079.75 294.992 1079.75 296.304C1079.75 296.944 1080 297.448 1080.49 297.816C1080.99 298.184 1081.68 298.368 1082.56 298.368ZM1099.89 287.16C1101.5 287.16 1102.78 287.632 1103.73 288.576C1104.69 289.504 1105.17 290.872 1105.17 292.68V300H1102.86V292.944C1102.86 291.712 1102.57 290.784 1101.98 290.16C1101.38 289.536 1100.54 289.224 1099.43 289.224C1098.18 289.224 1097.2 289.592 1096.48 290.328C1095.76 291.048 1095.4 292.088 1095.4 293.448V300H1093.1V287.28H1095.3V289.2C1095.77 288.544 1096.39 288.04 1097.18 287.688C1097.98 287.336 1098.88 287.16 1099.89 287.16ZM1116.88 299.256C1116.55 299.544 1116.13 299.768 1115.64 299.928C1115.14 300.072 1114.63 300.144 1114.1 300.144C1112.82 300.144 1111.83 299.8 1111.12 299.112C1110.42 298.424 1110.07 297.44 1110.07 296.16V289.176H1107.91V287.28H1110.07V284.496H1112.37V287.28H1116.02V289.176H1112.37V296.064C1112.37 296.752 1112.54 297.28 1112.88 297.648C1113.23 298.016 1113.72 298.2 1114.36 298.2C1115.07 298.2 1115.67 298 1116.16 297.6L1116.88 299.256ZM1125 300.144C1123.73 300.144 1122.6 299.864 1121.59 299.304C1120.58 298.744 1119.79 297.976 1119.21 297C1118.65 296.008 1118.37 294.888 1118.37 293.64C1118.37 292.392 1118.65 291.28 1119.21 290.304C1119.79 289.312 1120.58 288.544 1121.59 288C1122.6 287.44 1123.73 287.16 1125 287.16C1126.26 287.16 1127.39 287.44 1128.38 288C1129.39 288.544 1130.17 289.312 1130.73 290.304C1131.31 291.28 1131.6 292.392 1131.6 293.64C1131.6 294.888 1131.31 296.008 1130.73 297C1130.17 297.976 1129.39 298.744 1128.38 299.304C1127.39 299.864 1126.26 300.144 1125 300.144ZM1125 298.128C1125.81 298.128 1126.54 297.944 1127.18 297.576C1127.84 297.192 1128.35 296.664 1128.72 295.992C1129.08 295.304 1129.27 294.52 1129.27 293.64C1129.27 292.76 1129.08 291.984 1128.72 291.312C1128.35 290.624 1127.84 290.096 1127.18 289.728C1126.54 289.36 1125.81 289.176 1125 289.176C1124.18 289.176 1123.44 289.36 1122.79 289.728C1122.15 290.096 1121.64 290.624 1121.25 291.312C1120.88 291.984 1120.7 292.76 1120.7 293.64C1120.7 294.52 1120.88 295.304 1121.25 295.992C1121.64 296.664 1122.15 297.192 1122.79 297.576C1123.44 297.944 1124.18 298.128 1125 298.128ZM1141.87 287.16C1143.49 287.16 1144.77 287.632 1145.71 288.576C1146.67 289.504 1147.15 290.872 1147.15 292.68V300H1144.85V292.944C1144.85 291.712 1144.55 290.784 1143.96 290.16C1143.37 289.536 1142.52 289.224 1141.42 289.224C1140.17 289.224 1139.19 289.592 1138.47 290.328C1137.75 291.048 1137.39 292.088 1137.39 293.448V300H1135.08V287.28H1137.29V289.2C1137.75 288.544 1138.38 288.04 1139.16 287.688C1139.96 287.336 1140.87 287.16 1141.87 287.16ZM1163.28 293.712C1163.28 293.888 1163.27 294.12 1163.24 294.408H1152.92C1153.06 295.528 1153.55 296.432 1154.38 297.12C1155.23 297.792 1156.28 298.128 1157.52 298.128C1159.04 298.128 1160.27 297.616 1161.2 296.592L1162.47 298.08C1161.89 298.752 1161.17 299.264 1160.31 299.616C1159.46 299.968 1158.51 300.144 1157.45 300.144C1156.11 300.144 1154.92 299.872 1153.88 299.328C1152.84 298.768 1152.03 297.992 1151.45 297C1150.89 296.008 1150.61 294.888 1150.61 293.64C1150.61 292.408 1150.88 291.296 1151.43 290.304C1151.99 289.312 1152.75 288.544 1153.71 288C1154.68 287.44 1155.78 287.16 1157 287.16C1158.21 287.16 1159.29 287.44 1160.24 288C1161.2 288.544 1161.94 289.312 1162.47 290.304C1163.01 291.296 1163.28 292.432 1163.28 293.712ZM1157 289.104C1155.89 289.104 1154.96 289.44 1154.21 290.112C1153.48 290.784 1153.04 291.664 1152.92 292.752H1161.08C1160.95 291.68 1160.51 290.808 1159.76 290.136C1159.02 289.448 1158.1 289.104 1157 289.104ZM1178.93 290.256C1180.58 290.416 1181.83 290.928 1182.7 291.792C1183.56 292.64 1183.99 293.728 1183.99 295.056C1183.99 296.016 1183.75 296.888 1183.27 297.672C1182.79 298.44 1182.07 299.056 1181.11 299.52C1180.17 299.968 1179.01 300.192 1177.63 300.192C1176.43 300.192 1175.28 300.016 1174.18 299.664C1173.07 299.296 1172.17 298.792 1171.47 298.152L1172.57 296.256C1173.15 296.8 1173.88 297.24 1174.78 297.576C1175.67 297.896 1176.63 298.056 1177.63 298.056C1178.88 298.056 1179.85 297.792 1180.54 297.264C1181.24 296.736 1181.59 296.008 1181.59 295.08C1181.59 294.152 1181.25 293.432 1180.56 292.92C1179.87 292.408 1178.83 292.152 1177.44 292.152H1176.1V290.472L1180.32 285.288H1172.23V283.2H1183.32V284.832L1178.93 290.256ZM1193.4 300.192C1192.07 300.192 1190.88 299.856 1189.84 299.184C1188.82 298.496 1188.01 297.504 1187.42 296.208C1186.83 294.912 1186.53 293.376 1186.53 291.6C1186.53 289.824 1186.83 288.288 1187.42 286.992C1188.01 285.696 1188.82 284.712 1189.84 284.04C1190.88 283.352 1192.07 283.008 1193.4 283.008C1194.71 283.008 1195.88 283.352 1196.9 284.04C1197.94 284.712 1198.76 285.696 1199.35 286.992C1199.94 288.288 1200.24 289.824 1200.24 291.6C1200.24 293.376 1199.94 294.912 1199.35 296.208C1198.76 297.504 1197.94 298.496 1196.9 299.184C1195.88 299.856 1194.71 300.192 1193.4 300.192ZM1193.4 298.056C1194.74 298.056 1195.81 297.504 1196.61 296.4C1197.43 295.296 1197.84 293.696 1197.84 291.6C1197.84 289.504 1197.43 287.904 1196.61 286.8C1195.81 285.696 1194.74 285.144 1193.4 285.144C1192.04 285.144 1190.95 285.696 1190.13 286.8C1189.33 287.904 1188.93 289.504 1188.93 291.6C1188.93 293.696 1189.33 295.296 1190.13 296.4C1190.95 297.504 1192.04 298.056 1193.4 298.056ZM1207.98 283.2V300H1205.6V285.288H1201.81V283.2H1207.98ZM1216.75 289.896C1219.15 289.896 1220.91 290.352 1222.03 291.264C1223.17 292.16 1223.74 293.392 1223.74 294.96C1223.74 295.952 1223.5 296.848 1223.02 297.648C1222.55 298.432 1221.84 299.056 1220.88 299.52C1219.94 299.968 1218.77 300.192 1217.38 300.192C1216.19 300.192 1215.05 300.016 1213.94 299.664C1212.84 299.296 1211.93 298.792 1211.21 298.152L1212.31 296.256C1212.89 296.8 1213.62 297.24 1214.52 297.576C1215.42 297.896 1216.36 298.056 1217.35 298.056C1218.62 298.056 1219.59 297.792 1220.28 297.264C1220.98 296.72 1221.34 295.984 1221.34 295.056C1221.34 294.048 1220.95 293.288 1220.18 292.776C1219.42 292.248 1218.1 291.984 1216.25 291.984H1212.43L1213.32 283.2H1222.8V285.288H1215.34L1214.88 289.896H1216.75Z" fill="#303030"/>
<path d="M80.072 283.2H73.52V300H75.92V294.912H80.072C84.44 294.912 87.08 292.704 87.08 289.056C87.08 285.408 84.44 283.2 80.072 283.2ZM80 292.824H75.92V285.288H80C83.072 285.288 84.68 286.656 84.68 289.056C84.68 291.456 83.072 292.824 80 292.824ZM95.0847 287.16C93.0447 287.16 91.1487 287.736 89.8287 288.792L90.7887 290.52C91.7727 289.68 93.3087 289.152 94.8207 289.152C97.1007 289.152 98.2287 290.28 98.2287 292.224V292.68H94.5807C90.7887 292.68 89.4687 294.36 89.4687 296.4C89.4687 298.608 91.2927 300.144 94.1727 300.144C96.1647 300.144 97.5807 299.472 98.3487 298.32V300H100.533V292.32C100.533 288.84 98.5647 287.16 95.0847 287.16ZM94.5567 298.368C92.8047 298.368 91.7487 297.576 91.7487 296.304C91.7487 295.224 92.3967 294.336 94.6767 294.336H98.2287V296.112C97.6528 297.576 96.2847 298.368 94.5567 298.368ZM111.889 287.16C109.873 287.16 108.241 287.904 107.305 289.2V287.28H105.097V300H107.401V293.448C107.401 290.688 108.985 289.224 111.433 289.224C113.617 289.224 114.865 290.448 114.865 292.944V300H117.169V292.68C117.169 288.936 114.985 287.16 111.889 287.16ZM128.164 297.6C127.684 297.984 127.036 298.2 126.364 298.2C125.092 298.2 124.372 297.432 124.372 296.064V289.176H128.02V287.28H124.372V284.496H122.068V287.28H119.908V289.176H122.068V296.16C122.068 298.728 123.532 300.144 126.1 300.144C127.132 300.144 128.188 299.856 128.884 299.256L128.164 297.6ZM136.996 300.144C140.812 300.144 143.596 297.432 143.596 293.64C143.596 289.848 140.812 287.16 136.996 287.16C133.18 287.16 130.372 289.848 130.372 293.64C130.372 297.432 133.18 300.144 136.996 300.144ZM136.996 298.128C134.548 298.128 132.7 296.352 132.7 293.64C132.7 290.928 134.548 289.176 136.996 289.176C139.444 289.176 141.268 290.928 141.268 293.64C141.268 296.352 139.444 298.128 136.996 298.128ZM153.874 287.16C151.858 287.16 150.226 287.904 149.29 289.2V287.28H147.082V300H149.386V293.448C149.386 290.688 150.97 289.224 153.418 289.224C155.602 289.224 156.85 290.448 156.85 292.944V300H159.154V292.68C159.154 288.936 156.97 287.16 153.874 287.16ZM175.285 293.712C175.285 289.8 172.669 287.16 168.997 287.16C165.325 287.16 162.613 289.872 162.613 293.64C162.613 297.432 165.349 300.144 169.453 300.144C171.565 300.144 173.317 299.424 174.469 298.08L173.197 296.592C172.261 297.624 171.013 298.128 169.525 298.128C167.005 298.128 165.205 296.64 164.917 294.408H175.237C175.261 294.192 175.285 293.904 175.285 293.712ZM168.997 289.104C171.229 289.104 172.837 290.616 173.077 292.752H164.917C165.157 290.592 166.789 289.104 168.997 289.104ZM187.689 297.912L192.825 292.968C195.105 290.784 195.585 289.32 195.585 287.688C195.585 284.808 193.329 283.008 189.825 283.008C187.209 283.008 184.977 283.944 183.681 285.552L185.313 286.968C186.345 285.72 187.809 285.144 189.609 285.144C191.961 285.144 193.185 286.2 193.185 287.928C193.185 288.984 192.849 290.04 191.073 291.768L184.233 298.368V300H196.305V297.912H187.689ZM198.076 283.2V288.288H200.38V285.288H208.06L201.412 300H203.956L210.748 284.832V283.2H198.076ZM219.931 289.8C217.843 289.8 216.067 290.568 215.107 292.008C215.083 291.792 215.083 291.6 215.083 291.408C215.083 287.208 217.267 285.072 220.675 285.072C221.875 285.072 223.027 285.288 223.891 285.864L224.803 283.992C223.723 283.32 222.211 283.008 220.627 283.008C215.923 283.008 212.683 286.08 212.683 291.816C212.683 297.168 215.227 300.192 219.739 300.192C223.075 300.192 225.691 298.128 225.691 294.888C225.691 291.792 223.267 289.8 219.931 289.8ZM219.643 298.248C217.051 298.248 215.659 296.736 215.659 295.008C215.659 293.16 217.243 291.744 219.523 291.744C221.875 291.744 223.363 293.016 223.363 294.984C223.363 296.976 221.827 298.248 219.643 298.248ZM227.2 283.2V288.288H229.504V285.288H237.184L230.536 300H233.08L239.872 284.832V283.2H227.2Z" fill="white"/>
</g>
<g filter="url(#filter1_d)">
<rect x="47" y="463" width="329" height="240" fill="#162B49"/>
<path d="M84.696 629.272L84.12 633.928H87.456V635.68H83.904L83.376 640H81.672L82.2 635.68H77.664L77.136 640H75.432L75.96 635.68H72.648V633.928H76.176L76.776 629.272H73.416V627.52H76.992L77.52 623.2H79.224L78.696 627.52H83.208L83.736 623.2H85.44L84.912 627.52H88.224V629.272H84.696ZM82.992 629.272H78.48L77.88 633.928H82.416L82.992 629.272ZM95.535 623.2V640H93.159V625.288H89.367V623.2H95.535ZM106.758 629.8C107.862 629.8 108.846 630.008 109.71 630.424C110.59 630.84 111.278 631.44 111.774 632.224C112.27 632.992 112.518 633.88 112.518 634.888C112.518 635.944 112.254 636.872 111.726 637.672C111.214 638.472 110.502 639.096 109.59 639.544C108.694 639.976 107.686 640.192 106.566 640.192C104.31 640.192 102.566 639.464 101.334 638.008C100.118 636.552 99.5098 634.488 99.5098 631.816C99.5098 629.944 99.8378 628.352 100.494 627.04C101.166 625.712 102.094 624.712 103.278 624.04C104.478 623.352 105.87 623.008 107.454 623.008C108.27 623.008 109.038 623.096 109.758 623.272C110.478 623.432 111.102 623.672 111.63 623.992L110.718 625.864C109.918 625.336 108.846 625.072 107.502 625.072C105.758 625.072 104.39 625.616 103.398 626.704C102.406 627.776 101.91 629.344 101.91 631.408C101.91 631.664 101.918 631.864 101.934 632.008C102.414 631.288 103.07 630.744 103.902 630.376C104.75 629.992 105.702 629.8 106.758 629.8ZM106.47 638.248C107.574 638.248 108.47 637.952 109.158 637.36C109.846 636.768 110.19 635.976 110.19 634.984C110.19 633.992 109.838 633.208 109.134 632.632C108.446 632.04 107.518 631.744 106.35 631.744C105.598 631.744 104.926 631.888 104.334 632.176C103.758 632.464 103.302 632.856 102.966 633.352C102.646 633.848 102.486 634.4 102.486 635.008C102.486 635.6 102.638 636.144 102.942 636.64C103.262 637.12 103.718 637.512 104.31 637.816C104.918 638.104 105.638 638.248 106.47 638.248ZM126.43 637.912V640H114.358V638.368L121.198 631.768C122.03 630.968 122.59 630.28 122.878 629.704C123.166 629.112 123.31 628.52 123.31 627.928C123.31 627.048 122.998 626.368 122.374 625.888C121.766 625.392 120.886 625.144 119.734 625.144C117.878 625.144 116.446 625.752 115.438 626.968L113.806 625.552C114.462 624.752 115.318 624.128 116.374 623.68C117.446 623.232 118.638 623.008 119.95 623.008C121.71 623.008 123.11 623.432 124.15 624.28C125.19 625.112 125.71 626.248 125.71 627.688C125.71 628.584 125.518 629.432 125.134 630.232C124.75 631.032 124.022 631.944 122.95 632.968L117.814 637.912H126.43ZM141.376 631.288C142.352 631.56 143.12 632.056 143.68 632.776C144.24 633.48 144.52 634.376 144.52 635.464C144.52 636.92 143.968 638.04 142.864 638.824C141.776 639.608 140.184 640 138.088 640H130.072V623.2H137.608C139.528 623.2 141.008 623.584 142.048 624.352C143.104 625.12 143.632 626.184 143.632 627.544C143.632 628.424 143.424 629.184 143.008 629.824C142.608 630.464 142.064 630.952 141.376 631.288ZM132.472 625.144V630.52H137.392C138.624 630.52 139.568 630.296 140.224 629.848C140.896 629.384 141.232 628.712 141.232 627.832C141.232 626.952 140.896 626.288 140.224 625.84C139.568 625.376 138.624 625.144 137.392 625.144H132.472ZM137.992 638.056C139.352 638.056 140.376 637.832 141.064 637.384C141.752 636.936 142.096 636.232 142.096 635.272C142.096 633.4 140.728 632.464 137.992 632.464H132.472V638.056H137.992ZM161.784 635.872H158.592V640H156.264V635.872H146.928V634.192L155.52 623.2H158.112L149.88 633.808H156.336V630.16H158.592V633.808H161.784V635.872ZM168.806 623.008C171.062 623.008 172.798 623.736 174.014 625.192C175.246 626.648 175.862 628.712 175.862 631.384C175.862 633.256 175.526 634.856 174.854 636.184C174.198 637.496 173.27 638.496 172.07 639.184C170.886 639.856 169.502 640.192 167.918 640.192C167.102 640.192 166.334 640.112 165.614 639.952C164.894 639.776 164.27 639.528 163.742 639.208L164.654 637.336C165.47 637.864 166.55 638.128 167.894 638.128C169.638 638.128 170.998 637.592 171.974 636.52C172.966 635.432 173.462 633.856 173.462 631.792V631.192C172.982 631.912 172.318 632.464 171.47 632.848C170.622 633.216 169.67 633.4 168.614 633.4C167.51 633.4 166.518 633.192 165.638 632.776C164.774 632.36 164.094 631.768 163.598 631C163.118 630.216 162.878 629.32 162.878 628.312C162.878 627.256 163.134 626.328 163.646 625.528C164.174 624.728 164.886 624.112 165.782 623.68C166.678 623.232 167.686 623.008 168.806 623.008ZM169.022 631.456C169.774 631.456 170.446 631.312 171.038 631.024C171.63 630.736 172.086 630.344 172.406 629.848C172.742 629.352 172.91 628.8 172.91 628.192C172.91 627.6 172.75 627.064 172.43 626.584C172.126 626.088 171.67 625.696 171.062 625.408C170.47 625.104 169.75 624.952 168.902 624.952C167.798 624.952 166.902 625.248 166.214 625.84C165.542 626.432 165.206 627.224 165.206 628.216C165.206 629.208 165.55 630 166.238 630.592C166.926 631.168 167.854 631.456 169.022 631.456Z" fill="white"/>
<path d="M81.072 494.2C83.248 494.2 84.96 494.72 86.208 495.76C87.456 496.8 88.08 498.232 88.08 500.056C88.08 501.88 87.456 503.312 86.208 504.352C84.96 505.392 83.248 505.912 81.072 505.912H76.92V511H74.52V494.2H81.072ZM81 503.824C82.52 503.824 83.68 503.504 84.48 502.864C85.28 502.208 85.68 501.272 85.68 500.056C85.68 498.84 85.28 497.912 84.48 497.272C83.68 496.616 82.52 496.288 81 496.288H76.92V503.824H81ZM103.138 511L99.5139 505.84C99.0659 505.872 98.7139 505.888 98.4579 505.888H94.3059V511H91.9059V494.2H98.4579C100.634 494.2 102.346 494.72 103.594 495.76C104.842 496.8 105.466 498.232 105.466 500.056C105.466 501.352 105.146 502.456 104.506 503.368C103.866 504.28 102.954 504.944 101.77 505.36L105.754 511H103.138ZM98.3859 503.848C99.9059 503.848 101.066 503.52 101.866 502.864C102.666 502.208 103.066 501.272 103.066 500.056C103.066 498.84 102.666 497.912 101.866 497.272C101.066 496.616 99.9059 496.288 98.3859 496.288H94.3059V503.848H98.3859ZM109.643 494.2H112.043V511H109.643V494.2ZM132.949 511L132.925 498.76L126.853 508.96H125.749L119.677 498.832V511H117.373V494.2H119.341L126.349 506.008L133.261 494.2H135.229L135.253 511H132.949ZM151.299 506.8H142.371L140.523 511H138.051L145.659 494.2H148.035L155.667 511H153.147L151.299 506.8ZM150.459 504.88L146.835 496.648L143.211 504.88H150.459ZM169.705 511L166.081 505.84C165.633 505.872 165.281 505.888 165.025 505.888H160.873V511H158.473V494.2H165.025C167.201 494.2 168.913 494.72 170.161 495.76C171.409 496.8 172.033 498.232 172.033 500.056C172.033 501.352 171.713 502.456 171.073 503.368C170.433 504.28 169.521 504.944 168.337 505.36L172.321 511H169.705ZM164.953 503.848C166.473 503.848 167.633 503.52 168.433 502.864C169.233 502.208 169.633 501.272 169.633 500.056C169.633 498.84 169.233 497.912 168.433 497.272C167.633 496.616 166.473 496.288 164.953 496.288H160.873V503.848H164.953ZM182.408 505.192V511H180.032V505.144L173.36 494.2H175.928L181.304 503.056L186.704 494.2H189.08L182.408 505.192ZM209.865 502.288C210.841 502.56 211.609 503.056 212.169 503.776C212.729 504.48 213.009 505.376 213.009 506.464C213.009 507.92 212.457 509.04 211.353 509.824C210.265 510.608 208.673 511 206.577 511H198.561V494.2H206.097C208.017 494.2 209.497 494.584 210.537 495.352C211.593 496.12 212.121 497.184 212.121 498.544C212.121 499.424 211.913 500.184 211.497 500.824C211.097 501.464 210.553 501.952 209.865 502.288ZM200.961 496.144V501.52H205.881C207.113 501.52 208.057 501.296 208.713 500.848C209.385 500.384 209.721 499.712 209.721 498.832C209.721 497.952 209.385 497.288 208.713 496.84C208.057 496.376 207.113 496.144 205.881 496.144H200.961ZM206.481 509.056C207.841 509.056 208.865 508.832 209.553 508.384C210.241 507.936 210.585 507.232 210.585 506.272C210.585 504.4 209.217 503.464 206.481 503.464H200.961V509.056H206.481ZM217.025 494.2H219.425V508.912H228.521V511H217.025V494.2ZM238.253 511.192C236.013 511.192 234.269 510.552 233.021 509.272C231.773 507.992 231.149 506.152 231.149 503.752V494.2H233.549V503.656C233.549 507.256 235.125 509.056 238.277 509.056C239.813 509.056 240.989 508.616 241.805 507.736C242.621 506.84 243.029 505.48 243.029 503.656V494.2H245.357V503.752C245.357 506.168 244.733 508.016 243.485 509.296C242.237 510.56 240.493 511.192 238.253 511.192ZM262.77 508.912V511H250.578V494.2H262.434V496.288H252.978V501.448H261.402V503.488H252.978V508.912H262.77Z" fill="white"/>
<rect x="377" y="463" width="329" height="240" fill="#303030"/>
<path d="M413.696 665.272L413.12 669.928H416.456V671.68H412.904L412.376 676H410.672L411.2 671.68H406.664L406.136 676H404.432L404.96 671.68H401.648V669.928H405.176L405.776 665.272H402.416V663.52H405.992L406.52 659.2H408.224L407.696 663.52H412.208L412.736 659.2H414.44L413.912 663.52H417.224V665.272H413.696ZM411.992 665.272H407.48L406.88 669.928H411.416L411.992 665.272ZM425.759 666.256C427.407 666.416 428.663 666.928 429.527 667.792C430.391 668.64 430.823 669.728 430.823 671.056C430.823 672.016 430.583 672.888 430.103 673.672C429.623 674.44 428.903 675.056 427.943 675.52C426.999 675.968 425.839 676.192 424.463 676.192C423.263 676.192 422.111 676.016 421.007 675.664C419.903 675.296 418.999 674.792 418.295 674.152L419.399 672.256C419.975 672.8 420.711 673.24 421.607 673.576C422.503 673.896 423.455 674.056 424.463 674.056C425.711 674.056 426.679 673.792 427.367 673.264C428.071 672.736 428.423 672.008 428.423 671.08C428.423 670.152 428.079 669.432 427.391 668.92C426.703 668.408 425.663 668.152 424.271 668.152H422.927V666.472L427.151 661.288H419.063V659.2H430.151V660.832L425.759 666.256ZM440.225 676.192C438.897 676.192 437.713 675.856 436.673 675.184C435.649 674.496 434.841 673.504 434.249 672.208C433.657 670.912 433.361 669.376 433.361 667.6C433.361 665.824 433.657 664.288 434.249 662.992C434.841 661.696 435.649 660.712 436.673 660.04C437.713 659.352 438.897 659.008 440.225 659.008C441.537 659.008 442.705 659.352 443.729 660.04C444.769 660.712 445.585 661.696 446.177 662.992C446.769 664.288 447.065 665.824 447.065 667.6C447.065 669.376 446.769 670.912 446.177 672.208C445.585 673.504 444.769 674.496 443.729 675.184C442.705 675.856 441.537 676.192 440.225 676.192ZM440.225 674.056C441.569 674.056 442.641 673.504 443.441 672.4C444.257 671.296 444.665 669.696 444.665 667.6C444.665 665.504 444.257 663.904 443.441 662.8C442.641 661.696 441.569 661.144 440.225 661.144C438.865 661.144 437.777 661.696 436.961 662.8C436.161 663.904 435.761 665.504 435.761 667.6C435.761 669.696 436.161 671.296 436.961 672.4C437.777 673.504 438.865 674.056 440.225 674.056ZM455.867 666.256C457.515 666.416 458.771 666.928 459.635 667.792C460.499 668.64 460.931 669.728 460.931 671.056C460.931 672.016 460.691 672.888 460.211 673.672C459.731 674.44 459.011 675.056 458.051 675.52C457.107 675.968 455.947 676.192 454.571 676.192C453.371 676.192 452.219 676.016 451.115 675.664C450.011 675.296 449.107 674.792 448.403 674.152L449.507 672.256C450.083 672.8 450.819 673.24 451.715 673.576C452.611 673.896 453.563 674.056 454.571 674.056C455.819 674.056 456.787 673.792 457.475 673.264C458.179 672.736 458.531 672.008 458.531 671.08C458.531 670.152 458.187 669.432 457.499 668.92C456.811 668.408 455.771 668.152 454.379 668.152H453.035V666.472L457.259 661.288H449.171V659.2H460.259V660.832L455.867 666.256ZM470.333 676.192C469.005 676.192 467.821 675.856 466.781 675.184C465.757 674.496 464.949 673.504 464.357 672.208C463.765 670.912 463.469 669.376 463.469 667.6C463.469 665.824 463.765 664.288 464.357 662.992C464.949 661.696 465.757 660.712 466.781 660.04C467.821 659.352 469.005 659.008 470.333 659.008C471.645 659.008 472.813 659.352 473.837 660.04C474.877 660.712 475.693 661.696 476.285 662.992C476.877 664.288 477.173 665.824 477.173 667.6C477.173 669.376 476.877 670.912 476.285 672.208C475.693 673.504 474.877 674.496 473.837 675.184C472.813 675.856 471.645 676.192 470.333 676.192ZM470.333 674.056C471.677 674.056 472.749 673.504 473.549 672.4C474.365 671.296 474.773 669.696 474.773 667.6C474.773 665.504 474.365 663.904 473.549 662.8C472.749 661.696 471.677 661.144 470.333 661.144C468.973 661.144 467.885 661.696 467.069 662.8C466.269 663.904 465.869 665.504 465.869 667.6C465.869 669.696 466.269 671.296 467.069 672.4C467.885 673.504 468.973 674.056 470.333 674.056ZM485.975 666.256C487.623 666.416 488.879 666.928 489.743 667.792C490.607 668.64 491.039 669.728 491.039 671.056C491.039 672.016 490.799 672.888 490.319 673.672C489.839 674.44 489.119 675.056 488.159 675.52C487.215 675.968 486.055 676.192 484.679 676.192C483.479 676.192 482.327 676.016 481.223 675.664C480.119 675.296 479.215 674.792 478.511 674.152L479.615 672.256C480.191 672.8 480.927 673.24 481.823 673.576C482.719 673.896 483.671 674.056 484.679 674.056C485.927 674.056 486.895 673.792 487.583 673.264C488.287 672.736 488.639 672.008 488.639 671.08C488.639 670.152 488.295 669.432 487.607 668.92C486.919 668.408 485.879 668.152 484.487 668.152H483.143V666.472L487.367 661.288H479.279V659.2H490.367V660.832L485.975 666.256ZM500.441 676.192C499.113 676.192 497.929 675.856 496.889 675.184C495.865 674.496 495.057 673.504 494.465 672.208C493.873 670.912 493.577 669.376 493.577 667.6C493.577 665.824 493.873 664.288 494.465 662.992C495.057 661.696 495.865 660.712 496.889 660.04C497.929 659.352 499.113 659.008 500.441 659.008C501.753 659.008 502.921 659.352 503.945 660.04C504.985 660.712 505.801 661.696 506.393 662.992C506.985 664.288 507.281 665.824 507.281 667.6C507.281 669.376 506.985 670.912 506.393 672.208C505.801 673.504 504.985 674.496 503.945 675.184C502.921 675.856 501.753 676.192 500.441 676.192ZM500.441 674.056C501.785 674.056 502.857 673.504 503.657 672.4C504.473 671.296 504.881 669.696 504.881 667.6C504.881 665.504 504.473 663.904 503.657 662.8C502.857 661.696 501.785 661.144 500.441 661.144C499.081 661.144 497.993 661.696 497.177 662.8C496.377 663.904 495.977 665.504 495.977 667.6C495.977 669.696 496.377 671.296 497.177 672.4C497.993 673.504 499.081 674.056 500.441 674.056Z" fill="white"/>
<path d="M404.52 494.2H411.6C413.376 494.2 414.952 494.552 416.328 495.256C417.704 495.96 418.768 496.952 419.52 498.232C420.288 499.496 420.672 500.952 420.672 502.6C420.672 504.248 420.288 505.712 419.52 506.992C418.768 508.256 417.704 509.24 416.328 509.944C414.952 510.648 413.376 511 411.6 511H404.52V494.2ZM411.456 508.912C412.816 508.912 414.008 508.648 415.032 508.12C416.072 507.592 416.872 506.856 417.432 505.912C417.992 504.952 418.272 503.848 418.272 502.6C418.272 501.352 417.992 500.256 417.432 499.312C416.872 498.352 416.072 497.608 415.032 497.08C414.008 496.552 412.816 496.288 411.456 496.288H406.92V508.912H411.456ZM428.944 498.16C430.704 498.16 432.048 498.592 432.976 499.456C433.92 500.32 434.392 501.608 434.392 503.32V511H432.208V509.32C431.824 509.912 431.272 510.368 430.552 510.688C429.848 510.992 429.008 511.144 428.032 511.144C426.608 511.144 425.464 510.8 424.6 510.112C423.752 509.424 423.328 508.52 423.328 507.4C423.328 506.28 423.736 505.384 424.552 504.712C425.368 504.024 426.664 503.68 428.44 503.68H432.088V503.224C432.088 502.232 431.8 501.472 431.224 500.944C430.648 500.416 429.8 500.152 428.68 500.152C427.928 500.152 427.192 500.28 426.472 500.536C425.752 500.776 425.144 501.104 424.648 501.52L423.688 499.792C424.344 499.264 425.128 498.864 426.04 498.592C426.952 498.304 427.92 498.16 428.944 498.16ZM428.416 509.368C429.296 509.368 430.056 509.176 430.696 508.792C431.336 508.392 431.8 507.832 432.088 507.112V505.336H428.536C426.584 505.336 425.608 505.992 425.608 507.304C425.608 507.944 425.856 508.448 426.352 508.816C426.848 509.184 427.536 509.368 428.416 509.368ZM441.164 500.416C441.564 499.68 442.156 499.12 442.94 498.736C443.724 498.352 444.676 498.16 445.796 498.16V500.392C445.668 500.376 445.492 500.368 445.268 500.368C444.02 500.368 443.036 500.744 442.316 501.496C441.612 502.232 441.26 503.288 441.26 504.664V511H438.956V498.28H441.164V500.416ZM453.88 505.072L451.24 507.52V511H448.936V493.192H451.24V504.616L458.176 498.28H460.96L455.608 503.536L461.488 511H458.656L453.88 505.072ZM482.746 502.504H485.05V509.056C484.218 509.744 483.25 510.272 482.146 510.64C481.042 511.008 479.89 511.192 478.69 511.192C476.994 511.192 475.466 510.824 474.106 510.088C472.746 509.336 471.674 508.312 470.89 507.016C470.122 505.704 469.738 504.232 469.738 502.6C469.738 500.968 470.122 499.496 470.89 498.184C471.674 496.872 472.746 495.848 474.106 495.112C475.482 494.376 477.026 494.008 478.738 494.008C480.082 494.008 481.298 494.232 482.386 494.68C483.49 495.112 484.426 495.752 485.194 496.6L483.706 498.088C482.362 496.792 480.738 496.144 478.834 496.144C477.554 496.144 476.402 496.424 475.378 496.984C474.37 497.528 473.578 498.296 473.002 499.288C472.426 500.264 472.138 501.368 472.138 502.6C472.138 503.816 472.426 504.92 473.002 505.912C473.578 506.888 474.37 507.656 475.378 508.216C476.402 508.776 477.546 509.056 478.81 509.056C480.314 509.056 481.626 508.696 482.746 507.976V502.504ZM491.817 500.416C492.217 499.68 492.809 499.12 493.593 498.736C494.377 498.352 495.329 498.16 496.449 498.16V500.392C496.321 500.376 496.145 500.368 495.921 500.368C494.673 500.368 493.689 500.744 492.969 501.496C492.265 502.232 491.913 503.288 491.913 504.664V511H489.609V498.28H491.817V500.416ZM510.967 504.712C510.967 504.888 510.951 505.12 510.919 505.408H500.599C500.743 506.528 501.231 507.432 502.063 508.12C502.911 508.792 503.959 509.128 505.207 509.128C506.727 509.128 507.951 508.616 508.879 507.592L510.151 509.08C509.575 509.752 508.855 510.264 507.991 510.616C507.143 510.968 506.191 511.144 505.135 511.144C503.791 511.144 502.599 510.872 501.559 510.328C500.519 509.768 499.711 508.992 499.135 508C498.575 507.008 498.295 505.888 498.295 504.64C498.295 503.408 498.567 502.296 499.111 501.304C499.671 500.312 500.431 499.544 501.391 499C502.367 498.44 503.463 498.16 504.679 498.16C505.895 498.16 506.975 498.44 507.919 499C508.879 499.544 509.623 500.312 510.151 501.304C510.695 502.296 510.967 503.432 510.967 504.712ZM504.679 500.104C503.575 500.104 502.647 500.44 501.895 501.112C501.159 501.784 500.727 502.664 500.599 503.752H508.759C508.631 502.68 508.191 501.808 507.439 501.136C506.703 500.448 505.783 500.104 504.679 500.104ZM525.488 498.28L519.32 512.272C518.776 513.568 518.136 514.48 517.4 515.008C516.68 515.536 515.808 515.8 514.784 515.8C514.16 515.8 513.552 515.696 512.96 515.488C512.384 515.296 511.904 515.008 511.52 514.624L512.504 512.896C513.16 513.52 513.92 513.832 514.784 513.832C515.344 513.832 515.808 513.68 516.176 513.376C516.56 513.088 516.904 512.584 517.208 511.864L517.616 510.976L512 498.28H514.4L518.84 508.456L523.232 498.28H525.488Z" fill="white"/>
<rect x="707" y="463" width="329" height="240" fill="white"/>
<path d="M744.696 665.272L744.12 669.928H747.456V671.68H743.904L743.376 676H741.672L742.2 671.68H737.664L737.136 676H735.432L735.96 671.68H732.648V669.928H736.176L736.776 665.272H733.416V663.52H736.992L737.52 659.2H739.224L738.696 663.52H743.208L743.736 659.2H745.44L744.912 663.52H748.224V665.272H744.696ZM742.992 665.272H738.48L737.88 669.928H742.416L742.992 665.272ZM754.095 661.288V667.144H762.519V669.208H754.095V676H751.695V659.2H763.551V661.288H754.095ZM769.629 661.288V667.144H778.053V669.208H769.629V676H767.229V659.2H779.085V661.288H769.629ZM785.164 661.288V667.144H793.588V669.208H785.164V676H782.764V659.2H794.62V661.288H785.164ZM800.698 661.288V667.144H809.122V669.208H800.698V676H798.298V659.2H810.154V661.288H800.698ZM816.233 661.288V667.144H824.657V669.208H816.233V676H813.833V659.2H825.689V661.288H816.233ZM831.767 661.288V667.144H840.191V669.208H831.767V676H829.367V659.2H841.223V661.288H831.767Z" fill="#303030"/>
<path d="M742.032 511.192C744.648 511.192 746.904 510.28 748.44 508.552L746.88 507.04C745.584 508.408 744 509.056 742.152 509.056C738.36 509.056 735.552 506.32 735.552 502.6C735.552 498.88 738.36 496.144 742.152 496.144C744 496.144 745.584 496.768 746.88 498.136L748.44 496.624C746.904 494.896 744.648 494.008 742.056 494.008C736.944 494.008 733.152 497.632 733.152 502.6C733.152 507.568 736.944 511.192 742.032 511.192ZM759.396 511.192C764.508 511.192 768.3 507.544 768.3 502.6C768.3 497.656 764.508 494.008 759.396 494.008C754.236 494.008 750.444 497.68 750.444 502.6C750.444 507.52 754.236 511.192 759.396 511.192ZM759.396 509.056C755.628 509.056 752.844 506.32 752.844 502.6C752.844 498.88 755.628 496.144 759.396 496.144C763.116 496.144 765.9 498.88 765.9 502.6C765.9 506.32 763.116 509.056 759.396 509.056ZM775.37 511H777.746V496.288H783.506V494.2H769.61V496.288H775.37V511ZM789.99 511H792.366V496.288H798.126V494.2H784.23V496.288H789.99V511ZM808.39 511.192C813.502 511.192 817.294 507.544 817.294 502.6C817.294 497.656 813.502 494.008 808.39 494.008C803.23 494.008 799.438 497.68 799.438 502.6C799.438 507.52 803.23 511.192 808.39 511.192ZM808.39 509.056C804.622 509.056 801.838 506.32 801.838 502.6C801.838 498.88 804.622 496.144 808.39 496.144C812.11 496.144 814.894 498.88 814.894 502.6C814.894 506.32 812.11 509.056 808.39 509.056ZM833.31 494.2V506.728L823.23 494.2H821.262V511H823.662V498.472L833.742 511H835.71V494.2H833.31ZM869.24 494.2L864.608 507.928L859.976 494.2H857.768L853.04 507.856L848.504 494.2H846.032L851.648 511H854.216L858.8 497.584L863.384 511H865.904L871.52 494.2H869.24ZM886.804 494.2V501.424H877.156V494.2H874.756V511H877.156V503.512H886.804V511H889.204V494.2H886.804ZM894.532 511H896.932V494.2H894.532V511ZM905.598 511H907.974V496.288H913.734V494.2H899.838V496.288H905.598V511ZM919.048 508.912V503.488H927.472V501.448H919.048V496.288H928.504V494.2H916.648V511H928.84V508.912H919.048Z" fill="#303030"/>
<path d="M80.072 659.2H73.52V676H75.92V670.912H80.072C84.44 670.912 87.08 668.704 87.08 665.056C87.08 661.408 84.44 659.2 80.072 659.2ZM80 668.824H75.92V661.288H80C83.072 661.288 84.68 662.656 84.68 665.056C84.68 667.456 83.072 668.824 80 668.824ZM95.0847 663.16C93.0447 663.16 91.1487 663.736 89.8287 664.792L90.7887 666.52C91.7727 665.68 93.3087 665.152 94.8207 665.152C97.1007 665.152 98.2287 666.28 98.2287 668.224V668.68H94.5807C90.7887 668.68 89.4687 670.36 89.4687 672.4C89.4687 674.608 91.2927 676.144 94.1727 676.144C96.1647 676.144 97.5807 675.472 98.3487 674.32V676H100.533V668.32C100.533 664.84 98.5647 663.16 95.0847 663.16ZM94.5567 674.368C92.8047 674.368 91.7487 673.576 91.7487 672.304C91.7487 671.224 92.3967 670.336 94.6767 670.336H98.2287V672.112C97.6528 673.576 96.2847 674.368 94.5567 674.368ZM111.889 663.16C109.873 663.16 108.241 663.904 107.305 665.2V663.28H105.097V676H107.401V669.448C107.401 666.688 108.985 665.224 111.433 665.224C113.617 665.224 114.865 666.448 114.865 668.944V676H117.169V668.68C117.169 664.936 114.985 663.16 111.889 663.16ZM128.164 673.6C127.684 673.984 127.036 674.2 126.364 674.2C125.092 674.2 124.372 673.432 124.372 672.064V665.176H128.02V663.28H124.372V660.496H122.068V663.28H119.908V665.176H122.068V672.16C122.068 674.728 123.532 676.144 126.1 676.144C127.132 676.144 128.188 675.856 128.884 675.256L128.164 673.6ZM136.996 676.144C140.812 676.144 143.596 673.432 143.596 669.64C143.596 665.848 140.812 663.16 136.996 663.16C133.18 663.16 130.372 665.848 130.372 669.64C130.372 673.432 133.18 676.144 136.996 676.144ZM136.996 674.128C134.548 674.128 132.7 672.352 132.7 669.64C132.7 666.928 134.548 665.176 136.996 665.176C139.444 665.176 141.268 666.928 141.268 669.64C141.268 672.352 139.444 674.128 136.996 674.128ZM153.874 663.16C151.858 663.16 150.226 663.904 149.29 665.2V663.28H147.082V676H149.386V669.448C149.386 666.688 150.97 665.224 153.418 665.224C155.602 665.224 156.85 666.448 156.85 668.944V676H159.154V668.68C159.154 664.936 156.97 663.16 153.874 663.16ZM175.285 669.712C175.285 665.8 172.669 663.16 168.997 663.16C165.325 663.16 162.613 665.872 162.613 669.64C162.613 673.432 165.349 676.144 169.453 676.144C171.565 676.144 173.317 675.424 174.469 674.08L173.197 672.592C172.261 673.624 171.013 674.128 169.525 674.128C167.005 674.128 165.205 672.64 164.917 670.408H175.237C175.261 670.192 175.285 669.904 175.285 669.712ZM168.997 665.104C171.229 665.104 172.837 666.616 173.077 668.752H164.917C165.157 666.592 166.789 665.104 168.997 665.104ZM187.689 673.912L192.825 668.968C195.105 666.784 195.585 665.32 195.585 663.688C195.585 660.808 193.329 659.008 189.825 659.008C187.209 659.008 184.977 659.944 183.681 661.552L185.313 662.968C186.345 661.72 187.809 661.144 189.609 661.144C191.961 661.144 193.185 662.2 193.185 663.928C193.185 664.984 192.849 666.04 191.073 667.768L184.233 674.368V676H196.305V673.912H187.689ZM198.076 659.2V664.288H200.38V661.288H208.06L201.412 676H203.956L210.748 660.832V659.2H198.076ZM219.931 665.8C217.843 665.8 216.067 666.568 215.107 668.008C215.083 667.792 215.083 667.6 215.083 667.408C215.083 663.208 217.267 661.072 220.675 661.072C221.875 661.072 223.027 661.288 223.891 661.864L224.803 659.992C223.723 659.32 222.211 659.008 220.627 659.008C215.923 659.008 212.683 662.08 212.683 667.816C212.683 673.168 215.227 676.192 219.739 676.192C223.075 676.192 225.691 674.128 225.691 670.888C225.691 667.792 223.267 665.8 219.931 665.8ZM219.643 674.248C217.051 674.248 215.659 672.736 215.659 671.008C215.659 669.16 217.243 667.744 219.523 667.744C221.875 667.744 223.363 669.016 223.363 670.984C223.363 672.976 221.827 674.248 219.643 674.248ZM227.2 659.2V664.288H229.504V661.288H237.184L230.536 676H233.08L239.872 660.832V659.2H227.2Z" fill="white"/>
</g>
<defs>
<filter id="filter0_d" x="23" y="78" width="1367" height="288" filterUnits="userSpaceOnUse" color-interpolation-filters="sRGB">
<feFlood flood-opacity="0" result="BackgroundImageFix"/>
<feColorMatrix in="SourceAlpha" type="matrix" values="0 0 0 0 0 0 0 0 0 0 0 0 0 0 0 0 0 0 127 0"/>
<feOffset dy="15"/>
<feGaussianBlur stdDeviation="12"/>
<feColorMatrix type="matrix" values="0 0 0 0 0 0 0 0 0 0 0 0 0 0 0 0 0 0 0.0987885 0"/>
<feBlend mode="normal" in2="BackgroundImageFix" result="effect1_dropShadow"/>
<feBlend mode="normal" in="SourceGraphic" in2="effect1_dropShadow" result="shape"/>
</filter>
<filter id="filter1_d" x="23" y="454" width="1037" height="288" filterUnits="userSpaceOnUse" color-interpolation-filters="sRGB">
<feFlood flood-opacity="0" result="BackgroundImageFix"/>
<feColorMatrix in="SourceAlpha" type="matrix" values="0 0 0 0 0 0 0 0 0 0 0 0 0 0 0 0 0 0 127 0"/>
<feOffset dy="15"/>
<feGaussianBlur stdDeviation="12"/>
<feColorMatrix type="matrix" values="0 0 0 0 0 0 0 0 0 0 0 0 0 0 0 0 0 0 0.0987885 0"/>
<feBlend mode="normal" in2="BackgroundImageFix" result="effect1_dropShadow"/>
<feBlend mode="normal" in="SourceGraphic" in2="effect1_dropShadow" result="shape"/>
</filter>
</defs>
</svg>
