<svg width="2300" height="586" viewBox="0 0 2300 586" fill="none" xmlns="http://www.w3.org/2000/svg">
<path d="M424.6 317H416.5V286.5H383.8V317H375.7V249.6H383.8V279.2H416.5V249.6H424.6V317ZM485.858 291.8C485.858 299.333 483.724 305.567 479.458 310.5C475.191 315.433 469.324 317.9 461.858 317.9C454.591 317.9 448.824 315.467 444.558 310.6C440.358 305.667 438.258 299.467 438.258 292C438.258 284.467 440.424 278.2 444.758 273.2C449.158 268.133 454.858 265.6 461.858 265.6C469.524 265.6 475.424 268.067 479.558 273C483.758 277.933 485.858 284.2 485.858 291.8ZM446.458 291.9C446.458 297.167 447.858 301.667 450.658 305.4C453.458 309.067 457.191 310.9 461.858 310.9C466.924 310.9 470.824 309.1 473.558 305.5C476.291 301.833 477.658 297.3 477.658 291.9C477.658 286.3 476.358 281.7 473.758 278.1C471.158 274.433 467.191 272.6 461.858 272.6C457.058 272.6 453.291 274.467 450.558 278.2C447.824 281.933 446.458 286.5 446.458 291.9ZM519.61 317H509.91L494.31 266.3H502.71L507.61 283.1C509.343 288.967 510.777 294.1 511.91 298.5C513.11 302.833 513.877 305.733 514.21 307.2L514.71 309.3C515.71 305.033 518.143 296.267 522.01 283L526.81 266.3H535.21L540.11 283L547.61 309.4C548.543 305.467 551.11 296.667 555.31 283L560.41 266.3H568.51L552.51 317H542.81L538.01 300.4L531.01 275.1C530.01 279.367 527.743 287.8 524.21 300.4L519.61 317ZM673.923 317H666.023V284.2C666.023 276.533 662.79 272.7 656.323 272.7C653.123 272.7 650.257 274.167 647.723 277.1C645.19 279.967 643.923 284.033 643.923 289.3V317H636.023V284.2C636.023 276.533 632.79 272.7 626.323 272.7C623.123 272.7 620.257 274.167 617.723 277.1C615.19 279.967 613.923 284.033 613.923 289.3V317H606.123V266.3H613.923V274.5C616.723 268.567 621.49 265.6 628.223 265.6C636.023 265.6 640.957 268.9 643.023 275.5C644.49 272.3 646.523 269.867 649.123 268.2C651.79 266.467 654.757 265.6 658.023 265.6C663.29 265.6 667.257 267.1 669.923 270.1C672.59 273.1 673.923 277.133 673.923 282.2V317ZM697.959 317H690.059V266.3H697.959V317ZM697.659 246.7C698.659 247.7 699.159 248.933 699.159 250.4C699.159 251.867 698.659 253.1 697.659 254.1C696.659 255.033 695.426 255.5 693.959 255.5C692.493 255.5 691.259 255.033 690.259 254.1C689.326 253.1 688.859 251.867 688.859 250.4C688.859 248.933 689.326 247.7 690.259 246.7C691.259 245.7 692.493 245.2 693.959 245.2C695.426 245.2 696.659 245.7 697.659 246.7ZM755.599 312.9C755.599 320.633 753.466 326.433 749.199 330.3C744.933 334.233 739.433 336.2 732.699 336.2C726.566 336.2 721.333 335.167 716.999 333.1V325.2C721.266 327.667 726.266 328.9 731.999 328.9C736.866 328.9 740.699 327.6 743.499 325C746.299 322.4 747.699 318.333 747.699 312.8V307.1C744.366 312.833 739.399 315.7 732.799 315.7C726.999 315.7 722.033 313.567 717.899 309.3C713.833 305.033 711.799 299.1 711.799 291.5C711.799 283.967 713.699 277.767 717.499 272.9C721.299 268.033 726.266 265.6 732.399 265.6C739.333 265.6 744.433 268.633 747.699 274.7V266.3H755.599V312.9ZM719.999 291.3C719.999 296.967 721.399 301.3 724.199 304.3C726.999 307.233 730.166 308.7 733.699 308.7C737.366 308.7 740.599 307.3 743.399 304.5C746.266 301.633 747.699 297.4 747.699 291.8C747.699 285.333 746.333 280.533 743.599 277.4C740.866 274.267 737.699 272.7 734.099 272.7C729.766 272.7 726.333 274.433 723.799 277.9C721.266 281.3 719.999 285.767 719.999 291.3ZM811.282 317H803.382V284.2C803.382 280.533 802.415 277.7 800.482 275.7C798.615 273.7 796.149 272.7 793.082 272.7C789.349 272.7 786.082 274.133 783.282 277C780.482 279.867 779.082 283.967 779.082 289.3V317H771.282V246.3H779.082V275.1C782.082 268.767 787.415 265.6 795.082 265.6C799.949 265.6 803.849 267.1 806.782 270.1C809.782 273.1 811.282 277.167 811.282 282.3V317ZM852.386 315.7C850.186 316.9 847.719 317.5 844.986 317.5C834.986 317.5 829.986 312.4 829.986 302.2V272.7H821.886V266.3H829.986V253.7H837.886V266.3H851.886V272.7H837.886V302.4C837.886 307.8 840.419 310.5 845.486 310.5C848.086 310.5 850.386 309.733 852.386 308.2V315.7ZM912.214 317H902.514L886.914 266.3H895.314L900.214 283.1C901.947 288.967 903.381 294.1 904.514 298.5C905.714 302.833 906.481 305.733 906.814 307.2L907.314 309.3C908.314 305.033 910.747 296.267 914.614 283L919.414 266.3H927.814L932.714 283L940.214 309.4C941.147 305.467 943.714 296.667 947.914 283L953.014 266.3H961.114L945.114 317H935.414L930.614 300.4L923.614 275.1C922.614 279.367 920.347 287.8 916.814 300.4L912.214 317ZM1009.61 314.4C1005.68 316.467 1000.88 317.5 995.213 317.5C987.547 317.5 981.347 315.167 976.613 310.5C971.947 305.767 969.613 299.533 969.613 291.8C969.613 283.733 971.713 277.367 975.913 272.7C980.113 268.033 985.513 265.7 992.113 265.7C998.447 265.7 1003.48 267.733 1007.21 271.8C1010.95 275.867 1012.81 281.633 1012.81 289.1C1012.81 291.233 1012.65 293.2 1012.31 295H977.713C978.313 300 980.213 303.833 983.413 306.5C986.613 309.167 990.813 310.5 996.013 310.5C1001.68 310.5 1006.21 309.333 1009.61 307V314.4ZM992.113 272.6C988.313 272.6 985.08 273.967 982.413 276.7C979.747 279.433 978.18 283.333 977.713 288.4H1004.91V286.4C1004.91 282.2 1003.78 278.867 1001.51 276.4C999.247 273.867 996.113 272.6 992.113 272.6ZM1060.97 317H1053.07V266.3H1060.97V317ZM1060.67 246.7C1061.67 247.7 1062.17 248.933 1062.17 250.4C1062.17 251.867 1061.67 253.1 1060.67 254.1C1059.67 255.033 1058.44 255.5 1056.97 255.5C1055.51 255.5 1054.27 255.033 1053.27 254.1C1052.34 253.1 1051.87 251.867 1051.87 250.4C1051.87 248.933 1052.34 247.7 1053.27 246.7C1054.27 245.7 1055.51 245.2 1056.97 245.2C1058.44 245.2 1059.67 245.7 1060.67 246.7ZM1145.51 317H1137.61V284.2C1137.61 276.533 1134.38 272.7 1127.91 272.7C1124.71 272.7 1121.85 274.167 1119.31 277.1C1116.78 279.967 1115.51 284.033 1115.51 289.3V317H1107.61V284.2C1107.61 276.533 1104.38 272.7 1097.91 272.7C1094.71 272.7 1091.85 274.167 1089.31 277.1C1086.78 279.967 1085.51 284.033 1085.51 289.3V317H1077.71V266.3H1085.51V274.5C1088.31 268.567 1093.08 265.6 1099.81 265.6C1107.61 265.6 1112.55 268.9 1114.61 275.5C1116.08 272.3 1118.11 269.867 1120.71 268.2C1123.38 266.467 1126.35 265.6 1129.61 265.6C1134.88 265.6 1138.85 267.1 1141.51 270.1C1144.18 273.1 1145.51 277.133 1145.51 282.2V317ZM1169.05 336.7H1161.25V266.3H1169.05V274C1172.58 268.333 1177.82 265.5 1184.75 265.5C1191.48 265.5 1196.75 267.967 1200.55 272.9C1204.42 277.767 1206.35 283.867 1206.35 291.2C1206.35 299 1204.32 305.4 1200.25 310.4C1196.25 315.333 1191.02 317.8 1184.55 317.8C1177.88 317.8 1172.72 314.967 1169.05 309.3V336.7ZM1169.05 291.7C1169.05 298.167 1170.55 302.933 1173.55 306C1176.55 309.067 1179.88 310.6 1183.55 310.6C1187.82 310.6 1191.32 308.933 1194.05 305.6C1196.78 302.2 1198.15 297.4 1198.15 291.2C1198.15 285.667 1196.82 281.2 1194.15 277.8C1191.48 274.4 1188.12 272.7 1184.05 272.7C1179.98 272.7 1176.45 274.2 1173.45 277.2C1170.52 280.133 1169.05 284.967 1169.05 291.7ZM1227.49 317H1219.59L1219.69 266.3H1227.49V275.2C1230.15 268.933 1234.75 265.8 1241.29 265.8C1242.49 265.8 1243.42 265.867 1244.09 266V273.8C1242.69 273.333 1241.25 273.1 1239.79 273.1C1236.25 273.1 1233.32 274.733 1230.99 278C1228.65 281.267 1227.49 285.033 1227.49 289.3V317ZM1298.6 291.8C1298.6 299.333 1296.47 305.567 1292.2 310.5C1287.94 315.433 1282.07 317.9 1274.6 317.9C1267.34 317.9 1261.57 315.467 1257.3 310.6C1253.1 305.667 1251 299.467 1251 292C1251 284.467 1253.17 278.2 1257.5 273.2C1261.9 268.133 1267.6 265.6 1274.6 265.6C1282.27 265.6 1288.17 268.067 1292.3 273C1296.5 277.933 1298.6 284.2 1298.6 291.8ZM1259.2 291.9C1259.2 297.167 1260.6 301.667 1263.4 305.4C1266.2 309.067 1269.94 310.9 1274.6 310.9C1279.67 310.9 1283.57 309.1 1286.3 305.5C1289.04 301.833 1290.4 297.3 1290.4 291.9C1290.4 286.3 1289.1 281.7 1286.5 278.1C1283.9 274.433 1279.94 272.6 1274.6 272.6C1269.8 272.6 1266.04 274.467 1263.3 278.2C1260.57 281.933 1259.2 286.5 1259.2 291.9ZM1334.46 317H1324.76L1307.06 266.3H1315.26L1322.26 287.7L1329.66 310.8C1330.26 307.933 1332.76 300.233 1337.16 287.7L1344.36 266.3H1352.56L1334.46 317ZM1401.05 314.4C1397.11 316.467 1392.31 317.5 1386.65 317.5C1378.98 317.5 1372.78 315.167 1368.05 310.5C1363.38 305.767 1361.05 299.533 1361.05 291.8C1361.05 283.733 1363.15 277.367 1367.35 272.7C1371.55 268.033 1376.95 265.7 1383.55 265.7C1389.88 265.7 1394.91 267.733 1398.65 271.8C1402.38 275.867 1404.25 281.633 1404.25 289.1C1404.25 291.233 1404.08 293.2 1403.75 295H1369.15C1369.75 300 1371.65 303.833 1374.85 306.5C1378.05 309.167 1382.25 310.5 1387.45 310.5C1393.11 310.5 1397.65 309.333 1401.05 307V314.4ZM1383.55 272.6C1379.75 272.6 1376.51 273.967 1373.85 276.7C1371.18 279.433 1369.61 283.333 1369.15 288.4H1396.35V286.4C1396.35 282.2 1395.21 278.867 1392.95 276.4C1390.68 273.867 1387.55 272.6 1383.55 272.6ZM1469.51 315.7C1467.31 316.9 1464.84 317.5 1462.11 317.5C1452.11 317.5 1447.11 312.4 1447.11 302.2V272.7H1439.01V266.3H1447.11V253.7H1455.01V266.3H1469.01V272.7H1455.01V302.4C1455.01 307.8 1457.54 310.5 1462.61 310.5C1465.21 310.5 1467.51 309.733 1469.51 308.2V315.7ZM1522.72 317H1514.82V284.2C1514.82 280.533 1513.85 277.7 1511.92 275.7C1510.05 273.7 1507.59 272.7 1504.52 272.7C1500.79 272.7 1497.52 274.133 1494.72 277C1491.92 279.867 1490.52 283.967 1490.52 289.3V317H1482.72V246.3H1490.52V275.1C1493.52 268.767 1498.85 265.6 1506.52 265.6C1511.39 265.6 1515.29 267.1 1518.22 270.1C1521.22 273.1 1522.72 277.167 1522.72 282.3V317ZM1575.42 314.4C1571.49 316.467 1566.69 317.5 1561.02 317.5C1553.36 317.5 1547.16 315.167 1542.42 310.5C1537.76 305.767 1535.42 299.533 1535.42 291.8C1535.42 283.733 1537.52 277.367 1541.72 272.7C1545.92 268.033 1551.32 265.7 1557.92 265.7C1564.26 265.7 1569.29 267.733 1573.02 271.8C1576.76 275.867 1578.62 281.633 1578.62 289.1C1578.62 291.233 1578.46 293.2 1578.12 295H1543.52C1544.12 300 1546.02 303.833 1549.22 306.5C1552.42 309.167 1556.62 310.5 1561.82 310.5C1567.49 310.5 1572.02 309.333 1575.42 307V314.4ZM1557.92 272.6C1554.12 272.6 1550.89 273.967 1548.22 276.7C1545.56 279.433 1543.99 283.333 1543.52 288.4H1570.72V286.4C1570.72 282.2 1569.59 278.867 1567.32 276.4C1565.06 273.867 1561.92 272.6 1557.92 272.6ZM1657.48 256.7H1639.28V317H1631.18V256.7H1612.98V249.6H1657.48V256.7ZM1713.03 291.8C1713.03 299.333 1710.89 305.567 1706.63 310.5C1702.36 315.433 1696.49 317.9 1689.03 317.9C1681.76 317.9 1675.99 315.467 1671.73 310.6C1667.53 305.667 1665.43 299.467 1665.43 292C1665.43 284.467 1667.59 278.2 1671.93 273.2C1676.33 268.133 1682.03 265.6 1689.03 265.6C1696.69 265.6 1702.59 268.067 1706.73 273C1710.93 277.933 1713.03 284.2 1713.03 291.8ZM1673.63 291.9C1673.63 297.167 1675.03 301.667 1677.83 305.4C1680.63 309.067 1684.36 310.9 1689.03 310.9C1694.09 310.9 1697.99 309.1 1700.73 305.5C1703.46 301.833 1704.83 297.3 1704.83 291.9C1704.83 286.3 1703.53 281.7 1700.93 278.1C1698.33 274.433 1694.36 272.6 1689.03 272.6C1684.23 272.6 1680.46 274.467 1677.73 278.2C1674.99 281.933 1673.63 286.5 1673.63 291.9ZM1765.68 317H1757.78V308.2C1755.11 314.467 1749.81 317.6 1741.88 317.6C1736.88 317.6 1732.91 316.133 1729.98 313.2C1727.11 310.2 1725.68 306.2 1725.68 301.2V266.3H1733.58V299.2C1733.58 302.867 1734.51 305.667 1736.38 307.6C1738.24 309.533 1740.78 310.5 1743.98 310.5C1748.18 310.5 1751.51 309.033 1753.98 306.1C1756.51 303.167 1757.78 299.2 1757.78 294.2V266.3H1765.68V317ZM1789.78 317H1781.88L1781.98 266.3H1789.78V275.2C1792.45 268.933 1797.05 265.8 1803.58 265.8C1804.78 265.8 1805.72 265.867 1806.38 266V273.8C1804.98 273.333 1803.55 273.1 1802.08 273.1C1798.55 273.1 1795.62 274.733 1793.28 278C1790.95 281.267 1789.78 285.033 1789.78 289.3V317ZM1824.6 317H1816.7V266.3H1824.6V317ZM1824.3 246.7C1825.3 247.7 1825.8 248.933 1825.8 250.4C1825.8 251.867 1825.3 253.1 1824.3 254.1C1823.3 255.033 1822.07 255.5 1820.6 255.5C1819.13 255.5 1817.9 255.033 1816.9 254.1C1815.97 253.1 1815.5 251.867 1815.5 250.4C1815.5 248.933 1815.97 247.7 1816.9 246.7C1817.9 245.7 1819.13 245.2 1820.6 245.2C1822.07 245.2 1823.3 245.7 1824.3 246.7ZM1881.34 317H1873.44V284.2C1873.44 280.467 1872.47 277.633 1870.54 275.7C1868.67 273.7 1866.21 272.7 1863.14 272.7C1859.34 272.7 1856.04 274.167 1853.24 277.1C1850.51 280.033 1849.14 284.1 1849.14 289.3V317H1841.34V266.3H1849.14V275.1C1852.14 268.767 1857.47 265.6 1865.14 265.6C1870.07 265.6 1874.01 267.1 1876.94 270.1C1879.87 273.1 1881.34 277.1 1881.34 282.1V317ZM1937.94 312.9C1937.94 320.633 1935.81 326.433 1931.54 330.3C1927.28 334.233 1921.78 336.2 1915.04 336.2C1908.91 336.2 1903.68 335.167 1899.34 333.1V325.2C1903.61 327.667 1908.61 328.9 1914.34 328.9C1919.21 328.9 1923.04 327.6 1925.84 325C1928.64 322.4 1930.04 318.333 1930.04 312.8V307.1C1926.71 312.833 1921.74 315.7 1915.14 315.7C1909.34 315.7 1904.38 313.567 1900.24 309.3C1896.18 305.033 1894.14 299.1 1894.14 291.5C1894.14 283.967 1896.04 277.767 1899.84 272.9C1903.64 268.033 1908.61 265.6 1914.74 265.6C1921.68 265.6 1926.78 268.633 1930.04 274.7V266.3H1937.94V312.9ZM1902.34 291.3C1902.34 296.967 1903.74 301.3 1906.54 304.3C1909.34 307.233 1912.51 308.7 1916.04 308.7C1919.71 308.7 1922.94 307.3 1925.74 304.5C1928.61 301.633 1930.04 297.4 1930.04 291.8C1930.04 285.333 1928.68 280.533 1925.94 277.4C1923.21 274.267 1920.04 272.7 1916.44 272.7C1912.11 272.7 1908.68 274.433 1906.14 277.9C1903.61 281.3 1902.34 285.767 1902.34 291.3ZM412.3 464.4C408.367 466.467 403.567 467.5 397.9 467.5C390.233 467.5 384.033 465.167 379.3 460.5C374.633 455.767 372.3 449.533 372.3 441.8C372.3 433.733 374.4 427.367 378.6 422.7C382.8 418.033 388.2 415.7 394.8 415.7C401.133 415.7 406.167 417.733 409.9 421.8C413.633 425.867 415.5 431.633 415.5 439.1C415.5 441.233 415.333 443.2 415 445H380.4C381 450 382.9 453.833 386.1 456.5C389.3 459.167 393.5 460.5 398.7 460.5C404.367 460.5 408.9 459.333 412.3 457V464.4ZM394.8 422.6C391 422.6 387.767 423.967 385.1 426.7C382.433 429.433 380.867 433.333 380.4 438.4H407.6V436.4C407.6 432.2 406.467 428.867 404.2 426.4C401.933 423.867 398.8 422.6 394.8 422.6ZM433.146 467H424.446L441.446 441L425.446 416.2H434.546L446.046 435.2L457.646 416.2H466.646L450.246 441.1L467.246 467H458.146L445.846 447L433.146 467ZM486.5 486.7H478.7V416.3H486.5V424C490.033 418.333 495.267 415.5 502.2 415.5C508.933 415.5 514.2 417.967 518 422.9C521.867 427.767 523.8 433.867 523.8 441.2C523.8 449 521.767 455.4 517.7 460.4C513.7 465.333 508.467 467.8 502 467.8C495.333 467.8 490.167 464.967 486.5 459.3V486.7ZM486.5 441.7C486.5 448.167 488 452.933 491 456C494 459.067 497.333 460.6 501 460.6C505.267 460.6 508.767 458.933 511.5 455.6C514.233 452.2 515.6 447.4 515.6 441.2C515.6 435.667 514.267 431.2 511.6 427.8C508.933 424.4 505.567 422.7 501.5 422.7C497.433 422.7 493.9 424.2 490.9 427.2C487.967 430.133 486.5 434.967 486.5 441.7ZM574.138 464.4C570.205 466.467 565.405 467.5 559.738 467.5C552.072 467.5 545.872 465.167 541.138 460.5C536.472 455.767 534.138 449.533 534.138 441.8C534.138 433.733 536.238 427.367 540.438 422.7C544.638 418.033 550.038 415.7 556.638 415.7C562.972 415.7 568.005 417.733 571.738 421.8C575.472 425.867 577.338 431.633 577.338 439.1C577.338 441.233 577.172 443.2 576.838 445H542.238C542.838 450 544.738 453.833 547.938 456.5C551.138 459.167 555.338 460.5 560.538 460.5C566.205 460.5 570.738 459.333 574.138 457V464.4ZM556.638 422.6C552.838 422.6 549.605 423.967 546.938 426.7C544.272 429.433 542.705 433.333 542.238 438.4H569.438V436.4C569.438 432.2 568.305 428.867 566.038 426.4C563.772 423.867 560.638 422.6 556.638 422.6ZM598.884 467H590.984L591.084 416.3H598.884V425.2C601.551 418.933 606.151 415.8 612.684 415.8C613.884 415.8 614.818 415.867 615.484 416V423.8C614.084 423.333 612.651 423.1 611.184 423.1C607.651 423.1 604.718 424.733 602.384 428C600.051 431.267 598.884 435.033 598.884 439.3V467ZM633.702 467H625.802V416.3H633.702V467ZM633.402 396.7C634.402 397.7 634.902 398.933 634.902 400.4C634.902 401.867 634.402 403.1 633.402 404.1C632.402 405.033 631.168 405.5 629.702 405.5C628.235 405.5 627.002 405.033 626.002 404.1C625.068 403.1 624.602 401.867 624.602 400.4C624.602 398.933 625.068 397.7 626.002 396.7C627.002 395.7 628.235 395.2 629.702 395.2C631.168 395.2 632.402 395.7 633.402 396.7ZM687.441 464.4C683.508 466.467 678.708 467.5 673.041 467.5C665.375 467.5 659.175 465.167 654.441 460.5C649.775 455.767 647.441 449.533 647.441 441.8C647.441 433.733 649.541 427.367 653.741 422.7C657.941 418.033 663.341 415.7 669.941 415.7C676.275 415.7 681.308 417.733 685.041 421.8C688.775 425.867 690.641 431.633 690.641 439.1C690.641 441.233 690.475 443.2 690.141 445H655.541C656.141 450 658.041 453.833 661.241 456.5C664.441 459.167 668.641 460.5 673.841 460.5C679.508 460.5 684.041 459.333 687.441 457V464.4ZM669.941 422.6C666.141 422.6 662.908 423.967 660.241 426.7C657.575 429.433 656.008 433.333 655.541 438.4H682.741V436.4C682.741 432.2 681.608 428.867 679.341 426.4C677.075 423.867 673.941 422.6 669.941 422.6ZM744.387 467H736.487V434.2C736.487 430.467 735.521 427.633 733.587 425.7C731.721 423.7 729.254 422.7 726.187 422.7C722.387 422.7 719.087 424.167 716.287 427.1C713.554 430.033 712.187 434.1 712.187 439.3V467H704.387V416.3H712.187V425.1C715.187 418.767 720.521 415.6 728.187 415.6C733.121 415.6 737.054 417.1 739.987 420.1C742.921 423.1 744.387 427.1 744.387 432.1V467ZM794.991 465.2C791.791 467.133 787.858 468.1 783.191 468.1C775.191 468.1 768.825 465.567 764.091 460.5C759.425 455.367 757.091 449.133 757.091 441.8C757.091 434.6 759.425 428.4 764.091 423.2C768.825 418 775.258 415.4 783.391 415.4C787.725 415.4 791.591 416.333 794.991 418.2V425.7C791.925 423.633 788.325 422.6 784.191 422.6C778.458 422.6 773.858 424.467 770.391 428.2C766.991 431.867 765.291 436.433 765.291 441.9C765.358 447.367 767.025 451.933 770.291 455.6C773.558 459.2 778.191 461 784.191 461C788.058 461 791.658 459.9 794.991 457.7V465.2ZM845.862 464.4C841.928 466.467 837.128 467.5 831.462 467.5C823.795 467.5 817.595 465.167 812.862 460.5C808.195 455.767 805.862 449.533 805.862 441.8C805.862 433.733 807.962 427.367 812.162 422.7C816.362 418.033 821.762 415.7 828.362 415.7C834.695 415.7 839.728 417.733 843.462 421.8C847.195 425.867 849.062 431.633 849.062 439.1C849.062 441.233 848.895 443.2 848.562 445H813.962C814.562 450 816.462 453.833 819.662 456.5C822.862 459.167 827.062 460.5 832.262 460.5C837.928 460.5 842.462 459.333 845.862 457V464.4ZM828.362 422.6C824.562 422.6 821.328 423.967 818.662 426.7C815.995 429.433 814.428 433.333 813.962 438.4H841.162V436.4C841.162 432.2 840.028 428.867 837.762 426.4C835.495 423.867 832.362 422.6 828.362 422.6ZM933.522 441.8C933.522 449.333 931.389 455.567 927.122 460.5C922.855 465.433 916.989 467.9 909.522 467.9C902.255 467.9 896.489 465.467 892.222 460.6C888.022 455.667 885.922 449.467 885.922 442C885.922 434.467 888.089 428.2 892.422 423.2C896.822 418.133 902.522 415.6 909.522 415.6C917.189 415.6 923.089 418.067 927.222 423C931.422 427.933 933.522 434.2 933.522 441.8ZM894.122 441.9C894.122 447.167 895.522 451.667 898.322 455.4C901.122 459.067 904.855 460.9 909.522 460.9C914.589 460.9 918.489 459.1 921.222 455.5C923.955 451.833 925.322 447.3 925.322 441.9C925.322 436.3 924.022 431.7 921.422 428.1C918.822 424.433 914.855 422.6 909.522 422.6C904.722 422.6 900.955 424.467 898.222 428.2C895.489 431.933 894.122 436.5 894.122 441.9ZM970.274 422.7H959.074V467H951.174V422.7H942.474V416.3H951.174V411.6C951.174 406.667 952.474 402.767 955.074 399.9C957.741 397.033 961.408 395.6 966.074 395.6C967.674 395.6 969.308 395.833 970.974 396.3V403.5C969.374 402.967 967.841 402.7 966.374 402.7C964.241 402.7 962.474 403.433 961.074 404.9C959.741 406.367 959.074 408.633 959.074 411.7V416.3H970.274V422.7ZM1057.1 441.4C1057.1 450.067 1054.9 456.633 1050.5 461.1C1046.17 465.567 1040.1 467.8 1032.3 467.8C1024.63 467.8 1018.63 465.633 1014.3 461.3C1009.97 456.9 1007.8 450.533 1007.8 442.2V399.6H1015.9V442.1C1015.9 448.3 1017.37 452.867 1020.3 455.8C1023.3 458.733 1027.3 460.2 1032.3 460.2C1043.43 460.2 1049 454 1049 441.6V399.6H1057.1V441.4ZM1122.35 463.6C1118.22 466.4 1112.55 467.8 1105.35 467.8C1095.22 467.8 1086.98 464.7 1080.65 458.5C1074.32 452.233 1071.15 443.733 1071.15 433C1071.15 422.867 1074.35 414.633 1080.75 408.3C1087.22 401.9 1095.32 398.7 1105.05 398.7C1112.05 398.7 1117.75 399.9 1122.15 402.3V410.6C1119.22 409.067 1116.58 407.967 1114.25 407.3C1111.92 406.633 1108.85 406.3 1105.05 406.3C1097.78 406.3 1091.72 408.767 1086.85 413.7C1082.05 418.633 1079.65 425.067 1079.65 433C1079.65 441.267 1082.05 447.867 1086.85 452.8C1091.65 457.733 1098.02 460.2 1105.95 460.2C1112.35 460.2 1117.82 458.5 1122.35 455.1V463.6ZM1201.02 449.1C1201.02 455.033 1198.99 459.633 1194.92 462.9C1190.86 466.1 1185.62 467.7 1179.22 467.7C1172.16 467.7 1166.16 466.267 1161.22 463.4V454.7C1166.09 458.367 1172.02 460.2 1179.02 460.2C1183.22 460.2 1186.52 459.267 1188.92 457.4C1191.32 455.533 1192.52 452.833 1192.52 449.3C1192.52 447.833 1192.22 446.533 1191.62 445.4C1191.09 444.2 1190.16 443.133 1188.82 442.2C1187.56 441.2 1186.32 440.4 1185.12 439.8C1183.99 439.133 1182.42 438.333 1180.42 437.4C1180.02 437.2 1179.42 436.933 1178.62 436.6C1175.76 435.333 1173.56 434.3 1172.02 433.5C1170.56 432.7 1168.79 431.533 1166.72 430C1164.72 428.4 1163.26 426.567 1162.32 424.5C1161.39 422.433 1160.92 420.033 1160.92 417.3C1160.92 411.567 1162.96 407.1 1167.02 403.9C1171.16 400.633 1176.32 399 1182.52 399C1188.32 399 1193.26 400.033 1197.32 402.1V410.6C1193.26 407.933 1188.39 406.6 1182.72 406.6C1178.66 406.6 1175.42 407.567 1173.02 409.5C1170.62 411.367 1169.42 413.833 1169.42 416.9C1169.42 418.5 1169.72 419.933 1170.32 421.2C1170.99 422.467 1172.12 423.667 1173.72 424.8C1175.32 425.867 1176.69 426.7 1177.82 427.3C1178.96 427.833 1180.72 428.633 1183.12 429.7C1185.39 430.7 1187.12 431.5 1188.32 432.1C1189.52 432.633 1191.06 433.533 1192.92 434.8C1194.86 436 1196.29 437.2 1197.22 438.4C1198.22 439.533 1199.09 441.067 1199.82 443C1200.62 444.867 1201.02 446.9 1201.02 449.1ZM1231.26 460.9C1234.86 460.9 1237.73 459.9 1239.86 457.9C1242 455.833 1243.06 453.233 1243.06 450.1V443.6H1234.26C1230 443.6 1226.8 444.433 1224.66 446.1C1222.53 447.767 1221.46 449.867 1221.46 452.4C1221.46 454.933 1222.3 457 1223.96 458.6C1225.63 460.133 1228.06 460.9 1231.26 460.9ZM1243.16 461C1240.56 465.333 1235.83 467.5 1228.96 467.5C1224.23 467.5 1220.4 466.1 1217.46 463.3C1214.6 460.5 1213.16 456.967 1213.16 452.7C1213.16 447.833 1215 444.067 1218.66 441.4C1222.4 438.667 1227.46 437.3 1233.86 437.3H1243.06V434.7C1243.06 430.7 1242.16 427.7 1240.36 425.7C1238.56 423.633 1235.53 422.6 1231.26 422.6C1225.86 422.6 1221.06 424.033 1216.86 426.9V419C1220.66 416.667 1225.66 415.5 1231.86 415.5C1244.6 415.5 1250.96 421.967 1250.96 434.9V467H1243.16V461ZM1306.68 467H1298.78V434.2C1298.78 430.467 1297.82 427.633 1295.88 425.7C1294.02 423.7 1291.55 422.7 1288.48 422.7C1284.68 422.7 1281.38 424.167 1278.58 427.1C1275.85 430.033 1274.48 434.1 1274.48 439.3V467H1266.68V416.3H1274.48V425.1C1277.48 418.767 1282.82 415.6 1290.48 415.6C1295.42 415.6 1299.35 417.1 1302.28 420.1C1305.22 423.1 1306.68 427.1 1306.68 432.1V467ZM1369.3 467H1348.9V399.6H1368.9C1378.83 399.6 1386.97 402.7 1393.3 408.9C1399.7 415.033 1402.9 423 1402.9 432.8C1402.9 442.533 1399.93 450.667 1394 457.2C1388.13 463.733 1379.9 467 1369.3 467ZM1368.8 406.8H1357.1V459.9H1369.2C1377.53 459.9 1383.83 457.333 1388.1 452.2C1392.37 447 1394.5 440.533 1394.5 432.8C1394.5 425.467 1392.1 419.3 1387.3 414.3C1382.57 409.3 1376.4 406.8 1368.8 406.8ZM1424.61 467H1416.71V416.3H1424.61V467ZM1424.31 396.7C1425.31 397.7 1425.81 398.933 1425.81 400.4C1425.81 401.867 1425.31 403.1 1424.31 404.1C1423.31 405.033 1422.08 405.5 1420.61 405.5C1419.15 405.5 1417.91 405.033 1416.91 404.1C1415.98 403.1 1415.51 401.867 1415.51 400.4C1415.51 398.933 1415.98 397.7 1416.91 396.7C1417.91 395.7 1419.15 395.2 1420.61 395.2C1422.08 395.2 1423.31 395.7 1424.31 396.7ZM1478.35 464.4C1474.42 466.467 1469.62 467.5 1463.95 467.5C1456.29 467.5 1450.09 465.167 1445.35 460.5C1440.69 455.767 1438.35 449.533 1438.35 441.8C1438.35 433.733 1440.45 427.367 1444.65 422.7C1448.85 418.033 1454.25 415.7 1460.85 415.7C1467.19 415.7 1472.22 417.733 1475.95 421.8C1479.69 425.867 1481.55 431.633 1481.55 439.1C1481.55 441.233 1481.39 443.2 1481.05 445H1446.45C1447.05 450 1448.95 453.833 1452.15 456.5C1455.35 459.167 1459.55 460.5 1464.75 460.5C1470.42 460.5 1474.95 459.333 1478.35 457V464.4ZM1460.85 422.6C1457.05 422.6 1453.82 423.967 1451.15 426.7C1448.49 429.433 1446.92 433.333 1446.45 438.4H1473.65V436.4C1473.65 432.2 1472.52 428.867 1470.25 426.4C1467.99 423.867 1464.85 422.6 1460.85 422.6ZM1536.2 462.9C1536.2 470.633 1534.07 476.433 1529.8 480.3C1525.53 484.233 1520.03 486.2 1513.3 486.2C1507.17 486.2 1501.93 485.167 1497.6 483.1V475.2C1501.87 477.667 1506.87 478.9 1512.6 478.9C1517.47 478.9 1521.3 477.6 1524.1 475C1526.9 472.4 1528.3 468.333 1528.3 462.8V457.1C1524.97 462.833 1520 465.7 1513.4 465.7C1507.6 465.7 1502.63 463.567 1498.5 459.3C1494.43 455.033 1492.4 449.1 1492.4 441.5C1492.4 433.967 1494.3 427.767 1498.1 422.9C1501.9 418.033 1506.87 415.6 1513 415.6C1519.93 415.6 1525.03 418.633 1528.3 424.7V416.3H1536.2V462.9ZM1500.6 441.3C1500.6 446.967 1502 451.3 1504.8 454.3C1507.6 457.233 1510.77 458.7 1514.3 458.7C1517.97 458.7 1521.2 457.3 1524 454.5C1526.87 451.633 1528.3 447.4 1528.3 441.8C1528.3 435.333 1526.93 430.533 1524.2 427.4C1521.47 424.267 1518.3 422.7 1514.7 422.7C1510.37 422.7 1506.93 424.433 1504.4 427.9C1501.87 431.3 1500.6 435.767 1500.6 441.3ZM1596.48 441.8C1596.48 449.333 1594.35 455.567 1590.08 460.5C1585.82 465.433 1579.95 467.9 1572.48 467.9C1565.22 467.9 1559.45 465.467 1555.18 460.6C1550.98 455.667 1548.88 449.467 1548.88 442C1548.88 434.467 1551.05 428.2 1555.38 423.2C1559.78 418.133 1565.48 415.6 1572.48 415.6C1580.15 415.6 1586.05 418.067 1590.18 423C1594.38 427.933 1596.48 434.2 1596.48 441.8ZM1557.08 441.9C1557.08 447.167 1558.48 451.667 1561.28 455.4C1564.08 459.067 1567.82 460.9 1572.48 460.9C1577.55 460.9 1581.45 459.1 1584.18 455.5C1586.92 451.833 1588.28 447.3 1588.28 441.9C1588.28 436.3 1586.98 431.7 1584.38 428.1C1581.78 424.433 1577.82 422.6 1572.48 422.6C1567.68 422.6 1563.92 424.467 1561.18 428.2C1558.45 431.933 1557.08 436.5 1557.08 441.9ZM1624.13 446.6H1616.53L1616.43 430C1622.57 430 1627.3 428.967 1630.63 426.9C1633.97 424.767 1635.63 421.6 1635.63 417.4C1635.63 414 1634.53 411.233 1632.33 409.1C1630.13 406.967 1626.87 405.9 1622.53 405.9C1617.4 405.9 1612.2 407.567 1606.93 410.9V402.9C1611.27 400.167 1616.6 398.8 1622.93 398.8C1629.27 398.8 1634.33 400.433 1638.13 403.7C1641.93 406.9 1643.83 411.367 1643.83 417.1C1643.83 422.767 1641.87 427.167 1637.93 430.3C1634 433.433 1629.43 435.233 1624.23 435.7L1624.13 446.6ZM1626.23 461.9C1626.23 463.567 1625.63 464.967 1624.43 466.1C1623.3 467.233 1621.87 467.8 1620.13 467.8C1618.47 467.8 1617.07 467.233 1615.93 466.1C1614.87 464.967 1614.33 463.567 1614.33 461.9C1614.33 460.3 1614.9 458.933 1616.03 457.8C1617.17 456.6 1618.53 456 1620.13 456C1621.8 456 1623.23 456.6 1624.43 457.8C1625.63 458.933 1626.23 460.3 1626.23 461.9Z" fill="#162B49"/>
<path fill-rule="evenodd" clip-rule="evenodd" d="M153.125 92.5417H365.375L374.808 139.708H506.875V375.542H341.792L332.358 328.375H200.292V493.458H153.125V92.5417ZM336.132 186.875L326.698 139.709H200.292V281.208H371.035L380.468 328.375H459.708V186.875H336.132Z" fill="#006A96" fill-opacity="0.2"/>
</svg>
