<svg width="2300" height="586" viewBox="0 0 2300 586" fill="none" xmlns="http://www.w3.org/2000/svg">
<g clip-path="url(#clip0)">
<path d="M258.1 269H242.6V242.1H217.9V269H202.5V201.6H217.9V229H242.6V201.6H258.1V269ZM319.455 243.4C319.455 251.067 317.255 257.4 312.855 262.4C308.521 267.333 302.455 269.8 294.655 269.8C286.721 269.8 280.588 267.433 276.255 262.7C271.921 257.9 269.755 251.767 269.755 244.3C269.755 236.5 272.021 230.1 276.555 225.1C281.088 220.033 287.121 217.5 294.655 217.5C302.521 217.5 308.621 219.933 312.955 224.8C317.288 229.667 319.455 235.867 319.455 243.4ZM287.355 233.1C285.755 235.833 284.955 239.367 284.955 243.7C284.955 248.033 285.755 251.6 287.355 254.4C289.021 257.133 291.488 258.5 294.755 258.5C297.955 258.5 300.321 257.167 301.855 254.5C303.455 251.767 304.255 248.233 304.255 243.9C304.255 233.967 301.021 229 294.555 229C291.355 229 288.955 230.367 287.355 233.1ZM356.493 269H341.493L325.193 218.3H340.293L344.693 235C345.76 239.2 346.66 243 347.393 246.4C348.126 249.733 348.56 252.033 348.693 253.3L348.993 255.2C349.46 251.2 351.093 244.467 353.893 235L358.793 218.3H371.393L376.193 235C377.393 239.267 378.393 243.1 379.193 246.5C379.993 249.833 380.493 252.133 380.693 253.4L380.993 255.2C381.46 251.267 383.026 244.533 385.693 235L390.393 218.3H404.793L388.593 269H373.593L369.193 252.4C368.26 248.8 367.426 245.433 366.693 242.3C366.026 239.167 365.593 236.933 365.393 235.6L365.093 233.6C364.426 238.067 363.026 244.333 360.893 252.4L356.493 269ZM514.059 269H499.459V238.9C499.459 236.033 498.893 233.767 497.759 232.1C496.626 230.433 494.993 229.6 492.859 229.6C490.593 229.6 488.559 230.533 486.759 232.4C485.026 234.2 484.159 237.467 484.159 242.2V269H469.559V238.9C469.559 236.033 468.993 233.767 467.859 232.1C466.726 230.433 465.093 229.6 462.959 229.6C460.693 229.6 458.659 230.533 456.859 232.4C455.126 234.2 454.259 237.467 454.259 242.2V269H439.659V218.3H454.259V226.2C457.059 220.6 461.826 217.8 468.559 217.8C475.693 217.8 480.426 221 482.759 227.4C483.893 224.4 485.793 222.067 488.459 220.4C491.126 218.667 494.259 217.8 497.859 217.8C502.859 217.8 506.793 219.4 509.659 222.6C512.593 225.733 514.059 230.367 514.059 236.5V269ZM542.397 269H527.797V218.3H542.397V269ZM541.097 197.6C542.764 199.267 543.597 201.267 543.597 203.6C543.597 205.933 542.764 207.933 541.097 209.6C539.43 211.267 537.43 212.1 535.097 212.1C532.764 212.1 530.764 211.267 529.097 209.6C527.43 207.933 526.597 205.933 526.597 203.6C526.597 201.267 527.43 199.267 529.097 197.6C530.764 195.933 532.764 195.1 535.097 195.1C537.43 195.1 539.43 195.933 541.097 197.6ZM603.634 264.1C603.634 272.233 601.2 278.333 596.334 282.4C591.467 286.533 585.367 288.6 578.034 288.6C570.9 288.6 564.667 287.333 559.334 284.8V269.9C564 273.633 569.734 275.5 576.534 275.5C580.934 275.5 584.134 274.567 586.134 272.7C588.134 270.833 589.134 267.9 589.134 263.9V260.5C586.2 265.033 581.534 267.3 575.134 267.3C569.534 267.3 564.7 265.233 560.634 261.1C556.634 256.967 554.634 250.833 554.634 242.7C554.634 235.5 556.567 229.567 560.434 224.9C564.367 220.167 569.5 217.8 575.834 217.8C581.834 217.8 586.267 220.2 589.134 225V218.3H603.634V264.1ZM569.834 242.8C569.834 247 570.634 250.2 572.234 252.4C573.834 254.6 576.134 255.7 579.134 255.7C582.267 255.7 584.7 254.533 586.434 252.2C588.234 249.8 589.134 246.933 589.134 243.6C589.134 234.533 585.834 230 579.234 230C576.3 230 574 231.133 572.334 233.4C570.667 235.667 569.834 238.8 569.834 242.8ZM663.33 269H648.73V239C648.73 236.067 647.996 233.767 646.53 232.1C645.063 230.433 643.163 229.6 640.83 229.6C639.83 229.6 638.863 229.767 637.93 230.1C637.063 230.367 636.096 230.9 635.03 231.7C633.963 232.433 633.096 233.733 632.43 235.6C631.763 237.4 631.43 239.6 631.43 242.2V269H616.83V198.3H631.43V226.9C634.03 220.833 639.096 217.8 646.63 217.8C651.563 217.8 655.563 219.367 658.63 222.5C661.763 225.633 663.33 230.367 663.33 236.7V269ZM706.138 267.9C703.671 268.967 700.338 269.5 696.138 269.5C684.604 269.5 678.838 263.733 678.838 252.2V229H671.538V218.3H678.838V206.3H693.438V218.3H705.238V229H693.438V252.3C693.438 254.1 693.938 255.467 694.938 256.4C696.004 257.333 697.371 257.8 699.038 257.8C701.704 257.8 704.071 257.133 706.138 255.8V267.9ZM769.312 269H754.312L738.012 218.3H753.112L757.512 235C758.578 239.2 759.478 243 760.212 246.4C760.945 249.733 761.378 252.033 761.512 253.3L761.812 255.2C762.278 251.2 763.912 244.467 766.712 235L771.612 218.3H784.212L789.012 235C790.212 239.267 791.212 243.1 792.012 246.5C792.812 249.833 793.312 252.133 793.512 253.4L793.812 255.2C794.278 251.267 795.845 244.533 798.512 235L803.212 218.3H817.612L801.412 269H786.412L782.012 252.4C781.078 248.8 780.245 245.433 779.512 242.3C778.845 239.167 778.412 236.933 778.212 235.6L777.912 233.6C777.245 238.067 775.845 244.333 773.712 252.4L769.312 269ZM865.578 266.1C862.111 268.367 856.811 269.5 849.678 269.5C841.345 269.5 834.845 267.1 830.178 262.3C825.578 257.433 823.278 251.2 823.278 243.6C823.278 235.533 825.511 229.233 829.978 224.7C834.511 220.1 840.078 217.8 846.678 217.8C853.478 217.8 858.845 219.8 862.778 223.8C866.711 227.733 868.678 233.633 868.678 241.5C868.678 243.033 868.411 245.667 867.878 249.4H838.078C839.078 252.2 840.811 254.367 843.278 255.9C845.745 257.433 848.711 258.2 852.178 258.2C857.311 258.2 861.778 256.767 865.578 253.9V266.1ZM847.278 228.9C844.945 228.9 842.878 229.767 841.078 231.5C839.278 233.167 838.078 235.667 837.478 239H855.078V237.8C854.611 231.867 852.011 228.9 847.278 228.9ZM922.598 269H907.998V218.3H922.598V269ZM921.298 197.6C922.965 199.267 923.798 201.267 923.798 203.6C923.798 205.933 922.965 207.933 921.298 209.6C919.632 211.267 917.632 212.1 915.298 212.1C912.965 212.1 910.965 211.267 909.298 209.6C907.632 207.933 906.798 205.933 906.798 203.6C906.798 201.267 907.632 199.267 909.298 197.6C910.965 195.933 912.965 195.1 915.298 195.1C917.632 195.1 919.632 195.933 921.298 197.6ZM1011.24 269H996.635V238.9C996.635 236.033 996.068 233.767 994.935 232.1C993.802 230.433 992.168 229.6 990.035 229.6C987.768 229.6 985.735 230.533 983.935 232.4C982.202 234.2 981.335 237.467 981.335 242.2V269H966.735V238.9C966.735 236.033 966.168 233.767 965.035 232.1C963.902 230.433 962.268 229.6 960.135 229.6C957.868 229.6 955.835 230.533 954.035 232.4C952.302 234.2 951.435 237.467 951.435 242.2V269H936.835V218.3H951.435V226.2C954.235 220.6 959.002 217.8 965.735 217.8C972.868 217.8 977.602 221 979.935 227.4C981.068 224.4 982.968 222.067 985.635 220.4C988.302 218.667 991.435 217.8 995.035 217.8C1000.04 217.8 1003.97 219.4 1006.84 222.6C1009.77 225.733 1011.24 230.367 1011.24 236.5V269ZM1039.07 287.7H1024.47V218.3H1039.07V226.1C1042.61 220.5 1047.71 217.7 1054.37 217.7C1060.91 217.7 1066.14 220.033 1070.07 224.7C1074.07 229.3 1076.07 235.567 1076.07 243.5C1076.07 251.033 1074.14 257.267 1070.27 262.2C1066.47 267.133 1061.17 269.6 1054.37 269.6C1047.51 269.6 1042.41 266.9 1039.07 261.5V287.7ZM1039.07 243.1C1039.07 247.433 1040.14 250.9 1042.27 253.5C1044.41 256.1 1047.14 257.4 1050.47 257.4C1053.67 257.4 1056.27 256.2 1058.27 253.8C1060.27 251.333 1061.27 248 1061.27 243.8C1061.27 239.2 1060.24 235.733 1058.17 233.4C1056.17 231 1053.61 229.8 1050.47 229.8C1047.41 229.8 1044.74 230.967 1042.47 233.3C1040.21 235.633 1039.07 238.9 1039.07 243.1ZM1101.81 269H1087.21L1087.31 218.3H1101.81V227.7C1102.74 224.767 1104.27 222.433 1106.41 220.7C1108.61 218.9 1111.14 218 1114.01 218C1115.61 218 1116.87 218.133 1117.81 218.4V232.2C1116.21 231.467 1114.37 231.1 1112.31 231.1C1109.17 231.1 1106.64 232.267 1104.71 234.6C1102.77 236.867 1101.81 239.9 1101.81 243.7V269ZM1173.22 243.4C1173.22 251.067 1171.02 257.4 1166.62 262.4C1162.28 267.333 1156.22 269.8 1148.42 269.8C1140.48 269.8 1134.35 267.433 1130.02 262.7C1125.68 257.9 1123.52 251.767 1123.52 244.3C1123.52 236.5 1125.78 230.1 1130.32 225.1C1134.85 220.033 1140.88 217.5 1148.42 217.5C1156.28 217.5 1162.38 219.933 1166.72 224.8C1171.05 229.667 1173.22 235.867 1173.22 243.4ZM1141.12 233.1C1139.52 235.833 1138.72 239.367 1138.72 243.7C1138.72 248.033 1139.52 251.6 1141.12 254.4C1142.78 257.133 1145.25 258.5 1148.52 258.5C1151.72 258.5 1154.08 257.167 1155.62 254.5C1157.22 251.767 1158.02 248.233 1158.02 243.9C1158.02 233.967 1154.78 229 1148.32 229C1145.12 229 1142.72 230.367 1141.12 233.1ZM1212.66 269H1197.66L1178.96 218.3H1194.26L1200.86 239.9C1201.86 243.233 1202.72 246.4 1203.46 249.4C1204.19 252.333 1204.66 254.467 1204.86 255.8L1205.26 257.7C1205.86 253.367 1207.36 247.433 1209.76 239.9L1216.56 218.3H1231.56L1212.66 269ZM1279.57 266.1C1276.1 268.367 1270.8 269.5 1263.67 269.5C1255.34 269.5 1248.84 267.1 1244.17 262.3C1239.57 257.433 1237.27 251.2 1237.27 243.6C1237.27 235.533 1239.5 229.233 1243.97 224.7C1248.5 220.1 1254.07 217.8 1260.67 217.8C1267.47 217.8 1272.84 219.8 1276.77 223.8C1280.7 227.733 1282.67 233.633 1282.67 241.5C1282.67 243.033 1282.4 245.667 1281.87 249.4H1252.07C1253.07 252.2 1254.8 254.367 1257.27 255.9C1259.74 257.433 1262.7 258.2 1266.17 258.2C1271.3 258.2 1275.77 256.767 1279.57 253.9V266.1ZM1261.27 228.9C1258.94 228.9 1256.87 229.767 1255.07 231.5C1253.27 233.167 1252.07 235.667 1251.47 239H1269.07V237.8C1268.6 231.867 1266 228.9 1261.27 228.9ZM1351.09 267.9C1348.62 268.967 1345.29 269.5 1341.09 269.5C1329.56 269.5 1323.79 263.733 1323.79 252.2V229H1316.49V218.3H1323.79V206.3H1338.39V218.3H1350.19V229H1338.39V252.3C1338.39 254.1 1338.89 255.467 1339.89 256.4C1340.96 257.333 1342.32 257.8 1343.99 257.8C1346.66 257.8 1349.02 257.133 1351.09 255.8V267.9ZM1408.26 269H1393.66V239C1393.66 236.067 1392.93 233.767 1391.46 232.1C1390 230.433 1388.1 229.6 1385.76 229.6C1384.76 229.6 1383.8 229.767 1382.86 230.1C1382 230.367 1381.03 230.9 1379.96 231.7C1378.9 232.433 1378.03 233.733 1377.36 235.6C1376.7 237.4 1376.36 239.6 1376.36 242.2V269H1361.76V198.3H1376.36V226.9C1378.96 220.833 1384.03 217.8 1391.56 217.8C1396.5 217.8 1400.5 219.367 1403.56 222.5C1406.7 225.633 1408.26 230.367 1408.26 236.7V269ZM1461.27 266.1C1457.8 268.367 1452.5 269.5 1445.37 269.5C1437.04 269.5 1430.54 267.1 1425.87 262.3C1421.27 257.433 1418.97 251.2 1418.97 243.6C1418.97 235.533 1421.2 229.233 1425.67 224.7C1430.2 220.1 1435.77 217.8 1442.37 217.8C1449.17 217.8 1454.54 219.8 1458.47 223.8C1462.4 227.733 1464.37 233.633 1464.37 241.5C1464.37 243.033 1464.1 245.667 1463.57 249.4H1433.77C1434.77 252.2 1436.5 254.367 1438.97 255.9C1441.44 257.433 1444.4 258.2 1447.87 258.2C1453 258.2 1457.47 256.767 1461.27 253.9V266.1ZM1442.97 228.9C1440.64 228.9 1438.57 229.767 1436.77 231.5C1434.97 233.167 1433.77 235.667 1433.17 239H1450.77V237.8C1450.3 231.867 1447.7 228.9 1442.97 228.9ZM1548.59 214H1532.19V269H1516.69V214H1500.19V201.6H1548.59V214ZM1606.49 243.4C1606.49 251.067 1604.29 257.4 1599.89 262.4C1595.55 267.333 1589.49 269.8 1581.69 269.8C1573.75 269.8 1567.62 267.433 1563.29 262.7C1558.95 257.9 1556.79 251.767 1556.79 244.3C1556.79 236.5 1559.05 230.1 1563.59 225.1C1568.12 220.033 1574.15 217.5 1581.69 217.5C1589.55 217.5 1595.65 219.933 1599.99 224.8C1604.32 229.667 1606.49 235.867 1606.49 243.4ZM1574.39 233.1C1572.79 235.833 1571.99 239.367 1571.99 243.7C1571.99 248.033 1572.79 251.6 1574.39 254.4C1576.05 257.133 1578.52 258.5 1581.79 258.5C1584.99 258.5 1587.35 257.167 1588.89 254.5C1590.49 251.767 1591.29 248.233 1591.29 243.9C1591.29 233.967 1588.05 229 1581.59 229C1578.39 229 1575.99 230.367 1574.39 233.1ZM1663.72 269H1649.12V260.9C1646.46 266.567 1641.32 269.4 1633.72 269.4C1628.52 269.4 1624.46 267.967 1621.52 265.1C1618.66 262.167 1617.22 257.867 1617.22 252.2V218.3H1631.82V248.9C1631.82 254.833 1634.42 257.8 1639.62 257.8C1645.96 257.8 1649.12 253.567 1649.12 245.1V218.3H1663.72V269ZM1691.93 269H1677.33L1677.43 218.3H1691.93V227.7C1692.87 224.767 1694.4 222.433 1696.53 220.7C1698.73 218.9 1701.27 218 1704.13 218C1705.73 218 1707 218.133 1707.93 218.4V232.2C1706.33 231.467 1704.5 231.1 1702.43 231.1C1699.3 231.1 1696.77 232.267 1694.83 234.6C1692.9 236.867 1691.93 239.9 1691.93 243.7V269ZM1731.24 269H1716.64V218.3H1731.24V269ZM1729.94 197.6C1731.61 199.267 1732.44 201.267 1732.44 203.6C1732.44 205.933 1731.61 207.933 1729.94 209.6C1728.28 211.267 1726.28 212.1 1723.94 212.1C1721.61 212.1 1719.61 211.267 1717.94 209.6C1716.28 207.933 1715.44 205.933 1715.44 203.6C1715.44 201.267 1716.28 199.267 1717.94 197.6C1719.61 195.933 1721.61 195.1 1723.94 195.1C1726.28 195.1 1728.28 195.933 1729.94 197.6ZM1791.98 269H1777.38V238.8C1777.38 235.8 1776.68 233.533 1775.28 232C1773.88 230.4 1771.91 229.6 1769.38 229.6C1766.71 229.6 1764.48 230.667 1762.68 232.8C1760.95 234.867 1760.08 238 1760.08 242.2V269H1745.48V218.3H1760.08V226.9C1761.35 224.1 1763.28 221.9 1765.88 220.3C1768.55 218.633 1771.71 217.8 1775.38 217.8C1780.58 217.8 1784.65 219.367 1787.58 222.5C1790.51 225.567 1791.98 230.1 1791.98 236.1V269ZM1852.19 264.1C1852.19 272.233 1849.75 278.333 1844.89 282.4C1840.02 286.533 1833.92 288.6 1826.59 288.6C1819.45 288.6 1813.22 287.333 1807.89 284.8V269.9C1812.55 273.633 1818.29 275.5 1825.09 275.5C1829.49 275.5 1832.69 274.567 1834.69 272.7C1836.69 270.833 1837.69 267.9 1837.69 263.9V260.5C1834.75 265.033 1830.09 267.3 1823.69 267.3C1818.09 267.3 1813.25 265.233 1809.19 261.1C1805.19 256.967 1803.19 250.833 1803.19 242.7C1803.19 235.5 1805.12 229.567 1808.99 224.9C1812.92 220.167 1818.05 217.8 1824.39 217.8C1830.39 217.8 1834.82 220.2 1837.69 225V218.3H1852.19V264.1ZM1818.39 242.8C1818.39 247 1819.19 250.2 1820.79 252.4C1822.39 254.6 1824.69 255.7 1827.69 255.7C1830.82 255.7 1833.25 254.533 1834.99 252.2C1836.79 249.8 1837.69 246.933 1837.69 243.6C1837.69 234.533 1834.39 230 1827.79 230C1824.85 230 1822.55 231.133 1820.89 233.4C1819.22 235.667 1818.39 238.8 1818.39 242.8ZM241.8 416.1C238.333 418.367 233.033 419.5 225.9 419.5C217.567 419.5 211.067 417.1 206.4 412.3C201.8 407.433 199.5 401.2 199.5 393.6C199.5 385.533 201.733 379.233 206.2 374.7C210.733 370.1 216.3 367.8 222.9 367.8C229.7 367.8 235.067 369.8 239 373.8C242.933 377.733 244.9 383.633 244.9 391.5C244.9 393.033 244.633 395.667 244.1 399.4H214.3C215.3 402.2 217.033 404.367 219.5 405.9C221.967 407.433 224.933 408.2 228.4 408.2C233.533 408.2 238 406.767 241.8 403.9V416.1ZM223.5 378.9C221.167 378.9 219.1 379.767 217.3 381.5C215.5 383.167 214.3 385.667 213.7 389H231.3V387.8C230.833 381.867 228.233 378.9 223.5 378.9ZM268.42 419H252.62L270.72 393.6L253.72 368.3H269.92L278.12 383.4L287.22 368.3H303.22L285.02 393.7L301.92 419H286.02L277.52 403.8L268.42 419ZM325.957 437.7H311.357V368.3H325.957V376.1C329.49 370.5 334.59 367.7 341.257 367.7C347.79 367.7 353.024 370.033 356.957 374.7C360.957 379.3 362.957 385.567 362.957 393.5C362.957 401.033 361.024 407.267 357.157 412.2C353.357 417.133 348.057 419.6 341.257 419.6C334.39 419.6 329.29 416.9 325.957 411.5V437.7ZM325.957 393.1C325.957 397.433 327.024 400.9 329.157 403.5C331.29 406.1 334.024 407.4 337.357 407.4C340.557 407.4 343.157 406.2 345.157 403.8C347.157 401.333 348.157 398 348.157 393.8C348.157 389.2 347.124 385.733 345.057 383.4C343.057 381 340.49 379.8 337.357 379.8C334.29 379.8 331.624 380.967 329.357 383.3C327.09 385.633 325.957 388.9 325.957 393.1ZM413.99 416.1C410.523 418.367 405.223 419.5 398.09 419.5C389.757 419.5 383.257 417.1 378.59 412.3C373.99 407.433 371.69 401.2 371.69 393.6C371.69 385.533 373.923 379.233 378.39 374.7C382.923 370.1 388.49 367.8 395.09 367.8C401.89 367.8 407.257 369.8 411.19 373.8C415.123 377.733 417.09 383.633 417.09 391.5C417.09 393.033 416.823 395.667 416.29 399.4H386.49C387.49 402.2 389.223 404.367 391.69 405.9C394.157 407.433 397.123 408.2 400.59 408.2C405.723 408.2 410.19 406.767 413.99 403.9V416.1ZM395.69 378.9C393.357 378.9 391.29 379.767 389.49 381.5C387.69 383.167 386.49 385.667 385.89 389H403.49V387.8C403.023 381.867 400.423 378.9 395.69 378.9ZM443.71 419H429.11L429.21 368.3H443.71V377.7C444.643 374.767 446.177 372.433 448.31 370.7C450.51 368.9 453.043 368 455.91 368C457.51 368 458.777 368.133 459.71 368.4V382.2C458.11 381.467 456.277 381.1 454.21 381.1C451.077 381.1 448.543 382.267 446.61 384.6C444.677 386.867 443.71 389.9 443.71 393.7V419ZM483.022 419H468.422V368.3H483.022V419ZM481.722 347.6C483.389 349.267 484.222 351.267 484.222 353.6C484.222 355.933 483.389 357.933 481.722 359.6C480.055 361.267 478.055 362.1 475.722 362.1C473.389 362.1 471.389 361.267 469.722 359.6C468.055 357.933 467.222 355.933 467.222 353.6C467.222 351.267 468.055 349.267 469.722 347.6C471.389 345.933 473.389 345.1 475.722 345.1C478.055 345.1 480.055 345.933 481.722 347.6ZM537.059 416.1C533.592 418.367 528.292 419.5 521.159 419.5C512.825 419.5 506.325 417.1 501.659 412.3C497.059 407.433 494.759 401.2 494.759 393.6C494.759 385.533 496.992 379.233 501.459 374.7C505.992 370.1 511.559 367.8 518.159 367.8C524.959 367.8 530.325 369.8 534.259 373.8C538.192 377.733 540.159 383.633 540.159 391.5C540.159 393.033 539.892 395.667 539.359 399.4H509.559C510.559 402.2 512.292 404.367 514.759 405.9C517.225 407.433 520.192 408.2 523.659 408.2C528.792 408.2 533.259 406.767 537.059 403.9V416.1ZM518.759 378.9C516.425 378.9 514.359 379.767 512.559 381.5C510.759 383.167 509.559 385.667 508.959 389H526.559V387.8C526.092 381.867 523.492 378.9 518.759 378.9ZM598.779 419H584.179V388.8C584.179 385.8 583.479 383.533 582.079 382C580.679 380.4 578.712 379.6 576.179 379.6C573.512 379.6 571.279 380.667 569.479 382.8C567.746 384.867 566.879 388 566.879 392.2V419H552.279V368.3H566.879V376.9C568.146 374.1 570.079 371.9 572.679 370.3C575.346 368.633 578.512 367.8 582.179 367.8C587.379 367.8 591.446 369.367 594.379 372.5C597.312 375.567 598.779 380.1 598.779 386.1V419ZM649.887 416.6C645.953 418.733 641.22 419.8 635.687 419.8C628.087 419.8 621.82 417.4 616.887 412.6C611.953 407.733 609.487 401.467 609.487 393.8C609.62 386.2 612.087 379.933 616.887 375C621.687 370 628.253 367.5 636.587 367.5C641.72 367.5 646.153 368.467 649.887 370.4V382.9C646.353 380.7 642.42 379.6 638.087 379.6C634.02 379.6 630.72 380.833 628.187 383.3C625.653 385.7 624.353 389.2 624.287 393.8C624.553 398.267 625.887 401.733 628.287 404.2C630.687 406.667 633.853 407.9 637.787 407.9C641.987 407.9 646.02 406.733 649.887 404.4V416.6ZM700.362 416.1C696.895 418.367 691.595 419.5 684.462 419.5C676.128 419.5 669.628 417.1 664.962 412.3C660.362 407.433 658.062 401.2 658.062 393.6C658.062 385.533 660.295 379.233 664.762 374.7C669.295 370.1 674.862 367.8 681.462 367.8C688.262 367.8 693.628 369.8 697.562 373.8C701.495 377.733 703.462 383.633 703.462 391.5C703.462 393.033 703.195 395.667 702.662 399.4H672.862C673.862 402.2 675.595 404.367 678.062 405.9C680.528 407.433 683.495 408.2 686.962 408.2C692.095 408.2 696.562 406.767 700.362 403.9V416.1ZM682.062 378.9C679.728 378.9 677.662 379.767 675.862 381.5C674.062 383.167 672.862 385.667 672.262 389H689.862V387.8C689.395 381.867 686.795 378.9 682.062 378.9ZM789.482 393.4C789.482 401.067 787.282 407.4 782.882 412.4C778.549 417.333 772.482 419.8 764.682 419.8C756.749 419.8 750.615 417.433 746.282 412.7C741.949 407.9 739.782 401.767 739.782 394.3C739.782 386.5 742.049 380.1 746.582 375.1C751.115 370.033 757.149 367.5 764.682 367.5C772.549 367.5 778.649 369.933 782.982 374.8C787.315 379.667 789.482 385.867 789.482 393.4ZM757.382 383.1C755.782 385.833 754.982 389.367 754.982 393.7C754.982 398.033 755.782 401.6 757.382 404.4C759.049 407.133 761.515 408.5 764.782 408.5C767.982 408.5 770.349 407.167 771.882 404.5C773.482 401.767 774.282 398.233 774.282 393.9C774.282 383.967 771.049 379 764.582 379C761.382 379 758.982 380.367 757.382 383.1ZM828.32 379H818.82V419H804.32V379H797.72V368.3H804.32V366.4C804.32 360.267 806.02 355.5 809.42 352.1C812.887 348.7 817.654 347 823.72 347C826.854 347 829.387 347.333 831.32 348V359.8C829.454 359.067 827.72 358.7 826.12 358.7C823.654 358.7 821.82 359.267 820.62 360.4C819.42 361.533 818.82 363.533 818.82 366.4V368.3H828.32V379ZM918.491 392.9C918.491 401.7 916.024 408.433 911.091 413.1C906.157 417.7 899.491 420 891.091 420C882.824 420 876.191 417.7 871.191 413.1C866.191 408.5 863.691 402 863.691 393.6V351.6H879.091V393.5C879.091 401.833 883.091 406 891.091 406C899.091 406 903.091 401.667 903.091 393V351.6H918.491V392.9ZM982.488 416C978.421 418.533 972.554 419.8 964.888 419.8C955.021 419.8 946.754 416.633 940.088 410.3C933.488 403.9 930.188 395.633 930.188 385.5C930.188 375.233 933.388 366.867 939.788 360.4C946.254 353.933 954.654 350.7 964.988 350.7C972.588 350.7 978.421 351.967 982.488 354.5V369.3C977.488 366.233 971.921 364.7 965.788 364.7C960.388 364.7 955.854 366.6 952.188 370.4C948.521 374.133 946.688 379.167 946.688 385.5C946.688 391.7 948.521 396.633 952.188 400.3C955.854 403.9 960.588 405.7 966.388 405.7C972.654 405.7 978.021 404.1 982.488 400.9V416ZM1064.32 399.4C1064.32 405.467 1062.08 410.4 1057.62 414.2C1053.15 417.933 1047.22 419.8 1039.82 419.8C1031.88 419.8 1025.42 418.4 1020.42 415.6V400.1C1026.48 404.5 1032.95 406.7 1039.82 406.7C1042.15 406.7 1044.08 406.1 1045.62 404.9C1047.15 403.633 1047.92 402 1047.92 400C1047.92 399.333 1047.82 398.7 1047.62 398.1C1047.42 397.5 1047.05 396.933 1046.52 396.4C1045.98 395.867 1045.45 395.433 1044.92 395.1C1044.45 394.7 1043.72 394.267 1042.72 393.8C1041.78 393.267 1040.98 392.833 1040.32 392.5C1039.65 392.167 1038.65 391.7 1037.32 391.1C1036.05 390.5 1035.02 390.033 1034.22 389.7C1029.88 387.7 1026.38 385.233 1023.72 382.3C1021.12 379.367 1019.82 375.467 1019.82 370.6C1019.82 364.8 1021.95 360.133 1026.22 356.6C1030.48 353 1036.38 351.2 1043.92 351.2C1050.65 351.2 1056.45 352.333 1061.32 354.6V369C1055.92 365.867 1050.32 364.3 1044.52 364.3C1041.92 364.3 1039.92 364.833 1038.52 365.9C1037.18 366.967 1036.52 368.333 1036.52 370C1036.52 371.667 1037.35 373.167 1039.02 374.5C1040.68 375.767 1043.18 377.133 1046.52 378.6C1048.58 379.533 1050.28 380.367 1051.62 381.1C1053.02 381.767 1054.58 382.733 1056.32 384C1058.12 385.2 1059.52 386.5 1060.52 387.9C1061.58 389.233 1062.48 390.9 1063.22 392.9C1063.95 394.9 1064.32 397.067 1064.32 399.4ZM1093.58 409C1095.65 409 1097.25 408.367 1098.38 407.1C1099.52 405.833 1100.08 404.1 1100.08 401.9V398.2H1095.38C1092.92 398.2 1091.02 398.733 1089.68 399.8C1088.35 400.867 1087.68 402.233 1087.68 403.9C1087.68 407.3 1089.65 409 1093.58 409ZM1100.78 412.8C1098.65 417.133 1094.45 419.3 1088.18 419.3C1083.25 419.3 1079.38 417.9 1076.58 415.1C1073.85 412.3 1072.48 408.8 1072.48 404.6C1072.48 399.733 1074.25 395.967 1077.78 393.3C1081.38 390.567 1086.68 389.2 1093.68 389.2H1100.08V385.7C1100.08 381.433 1097.25 379.3 1091.58 379.3C1086.12 379.3 1081.05 380.833 1076.38 383.9V370.8C1080.38 368.533 1086.15 367.4 1093.68 367.4C1100.88 367.4 1106.25 368.967 1109.78 372.1C1113.32 375.167 1115.08 379.967 1115.08 386.5V419H1100.78V412.8ZM1174.75 419H1160.15V388.8C1160.15 385.8 1159.45 383.533 1158.05 382C1156.65 380.4 1154.68 379.6 1152.15 379.6C1149.48 379.6 1147.25 380.667 1145.45 382.8C1143.71 384.867 1142.85 388 1142.85 392.2V419H1128.25V368.3H1142.85V376.9C1144.11 374.1 1146.05 371.9 1148.65 370.3C1151.31 368.633 1154.48 367.8 1158.15 367.8C1163.35 367.8 1167.41 369.367 1170.35 372.5C1173.28 375.567 1174.75 380.1 1174.75 386.1V419ZM1238.15 419H1215.15V351.6H1238.35C1248.49 351.6 1256.79 354.733 1263.25 361C1269.72 367.2 1272.95 374.933 1272.95 384.2C1272.95 395 1269.75 403.5 1263.35 409.7C1257.02 415.9 1248.62 419 1238.15 419ZM1237.85 364.3H1230.95V406.4H1237.95C1244.15 406.4 1248.92 404.467 1252.25 400.6C1255.65 396.733 1257.35 391.267 1257.35 384.2C1257.35 378.2 1255.65 373.4 1252.25 369.8C1248.85 366.133 1244.05 364.3 1237.85 364.3ZM1299.71 419H1285.11V368.3H1299.71V419ZM1298.41 347.6C1300.08 349.267 1300.91 351.267 1300.91 353.6C1300.91 355.933 1300.08 357.933 1298.41 359.6C1296.75 361.267 1294.75 362.1 1292.41 362.1C1290.08 362.1 1288.08 361.267 1286.41 359.6C1284.75 357.933 1283.91 355.933 1283.91 353.6C1283.91 351.267 1284.75 349.267 1286.41 347.6C1288.08 345.933 1290.08 345.1 1292.41 345.1C1294.75 345.1 1296.75 345.933 1298.41 347.6ZM1353.75 416.1C1350.28 418.367 1344.98 419.5 1337.85 419.5C1329.52 419.5 1323.02 417.1 1318.35 412.3C1313.75 407.433 1311.45 401.2 1311.45 393.6C1311.45 385.533 1313.68 379.233 1318.15 374.7C1322.68 370.1 1328.25 367.8 1334.85 367.8C1341.65 367.8 1347.02 369.8 1350.95 373.8C1354.88 377.733 1356.85 383.633 1356.85 391.5C1356.85 393.033 1356.58 395.667 1356.05 399.4H1326.25C1327.25 402.2 1328.98 404.367 1331.45 405.9C1333.92 407.433 1336.88 408.2 1340.35 408.2C1345.48 408.2 1349.95 406.767 1353.75 403.9V416.1ZM1335.45 378.9C1333.12 378.9 1331.05 379.767 1329.25 381.5C1327.45 383.167 1326.25 385.667 1325.65 389H1343.25V387.8C1342.78 381.867 1340.18 378.9 1335.45 378.9ZM1415.97 414.1C1415.97 422.233 1413.54 428.333 1408.67 432.4C1403.81 436.533 1397.71 438.6 1390.37 438.6C1383.24 438.6 1377.01 437.333 1371.67 434.8V419.9C1376.34 423.633 1382.07 425.5 1388.87 425.5C1393.27 425.5 1396.47 424.567 1398.47 422.7C1400.47 420.833 1401.47 417.9 1401.47 413.9V410.5C1398.54 415.033 1393.87 417.3 1387.47 417.3C1381.87 417.3 1377.04 415.233 1372.97 411.1C1368.97 406.967 1366.97 400.833 1366.97 392.7C1366.97 385.5 1368.91 379.567 1372.77 374.9C1376.71 370.167 1381.84 367.8 1388.17 367.8C1394.17 367.8 1398.61 370.2 1401.47 375V368.3H1415.97V414.1ZM1382.17 392.8C1382.17 397 1382.97 400.2 1384.57 402.4C1386.17 404.6 1388.47 405.7 1391.47 405.7C1394.61 405.7 1397.04 404.533 1398.77 402.2C1400.57 399.8 1401.47 396.933 1401.47 393.6C1401.47 384.533 1398.17 380 1391.57 380C1388.64 380 1386.34 381.133 1384.67 383.4C1383.01 385.667 1382.17 388.8 1382.17 392.8ZM1476.37 393.4C1476.37 401.067 1474.17 407.4 1469.77 412.4C1465.43 417.333 1459.37 419.8 1451.57 419.8C1443.63 419.8 1437.5 417.433 1433.17 412.7C1428.83 407.9 1426.67 401.767 1426.67 394.3C1426.67 386.5 1428.93 380.1 1433.47 375.1C1438 370.033 1444.03 367.5 1451.57 367.5C1459.43 367.5 1465.53 369.933 1469.87 374.8C1474.2 379.667 1476.37 385.867 1476.37 393.4ZM1444.27 383.1C1442.67 385.833 1441.87 389.367 1441.87 393.7C1441.87 398.033 1442.67 401.6 1444.27 404.4C1445.93 407.133 1448.4 408.5 1451.67 408.5C1454.87 408.5 1457.23 407.167 1458.77 404.5C1460.37 401.767 1461.17 398.233 1461.17 393.9C1461.17 383.967 1457.93 379 1451.47 379C1448.27 379 1445.87 380.367 1444.27 383.1ZM1507.81 395.4H1494.51L1494.21 380.3C1504.47 380.3 1509.61 377.167 1509.61 370.9C1509.61 368.5 1508.87 366.6 1507.41 365.2C1506.01 363.733 1503.91 363 1501.11 363C1496.77 363 1492.44 364.433 1488.11 367.3V353.6C1492.11 351.733 1497.21 350.8 1503.41 350.8C1509.67 350.8 1514.74 352.467 1518.61 355.8C1522.47 359.067 1524.41 363.5 1524.41 369.1C1524.41 372.1 1523.81 374.833 1522.61 377.3C1521.41 379.7 1519.91 381.6 1518.11 383C1516.31 384.333 1514.54 385.367 1512.81 386.1C1511.07 386.833 1509.51 387.2 1508.11 387.2L1507.81 395.4ZM1507.41 404.3C1509.21 406.033 1510.11 408.167 1510.11 410.7C1510.11 413.233 1509.21 415.4 1507.41 417.2C1505.67 418.933 1503.54 419.8 1501.01 419.8C1498.47 419.8 1496.31 418.933 1494.51 417.2C1492.77 415.4 1491.91 413.233 1491.91 410.7C1491.91 408.167 1492.77 406.033 1494.51 404.3C1496.31 402.5 1498.47 401.6 1501.01 401.6C1503.54 401.6 1505.67 402.5 1507.41 404.3Z" fill="#162B49"/>
<path fill-rule="evenodd" clip-rule="evenodd" d="M21.625 74.375H266.875L277.775 128.875H430.375V401.375H239.625L228.725 346.875H76.125V537.625H21.625V74.375ZM233.085 183.375L222.185 128.875H76.1249V292.375H273.415L284.315 346.875H375.875V183.375H233.085Z" fill="#006A96" fill-opacity="0.2"/>
</g>
<defs>
<clipPath id="clip0">
<rect width="2300" height="586" fill="white"/>
</clipPath>
</defs>
</svg>
