<svg xmlns="http://www.w3.org/2000/svg" viewBox="0 0 350 350"><defs><style>.cls-1{fill:#231f20;}.cls-2{fill:none;stroke:#231f20;stroke-linecap:round;stroke-linejoin:round;stroke-width:7px;}</style></defs><g id="Logo"><path class="cls-1" d="M173.6,86.07c8.51,17.34,24.27,29.26,39.69,40.92,7.87,6,16,12.12,22.79,18.83,19.87,19.64,23.54,41.86,23.12,57.05-.59,21.2-9.57,42.48-24.65,58.38-15.92,16.81-37.06,26.06-59.53,26.06a84.35,84.35,0,0,1-84.25-84.25c0-28.16,13.41-51.39,42.21-73.1,15.62-11.79,31.53-25.79,40.62-43.89m.6-30.38c-.75,30.84-22.52,51.4-45.44,68.68-26.23,19.78-45,44.39-45,78.69A91.25,91.25,0,0,0,175,294.31c52,0,89.89-44.9,91.17-91.25A82.82,82.82,0,0,0,241,140.84c-26.42-26.12-67.88-40.86-66.8-85.15Z"/><circle class="cls-2" cx="175.86" cy="204.2" r="61.11"/><circle class="cls-2" cx="175.86" cy="207.11" r="30.05"/></g></svg>