<svg xmlns="http://www.w3.org/2000/svg" viewBox="0 0 299.19 92.99"><defs><style>.cls-1{font-size:32px;fill:#231f20;font-family:Montserrat-Medium, Montserrat;font-weight:500;}.cls-2{letter-spacing:-0.01em;}.cls-3{letter-spacing:-0.02em;}.cls-4{letter-spacing:0em;}.cls-5{letter-spacing:-0.05em;}.cls-6{fill:none;stroke:#231f20;stroke-linecap:round;stroke-miterlimit:10;stroke-width:2px;}</style></defs><g id="Logo"><text class="cls-1" transform="translate(34.03 54.17)">B<tspan class="cls-2" x="24.22" y="0">o</tspan><tspan class="cls-3" x="44.06" y="0">y</tspan><tspan x="61.41" y="0">a</tspan><tspan class="cls-4" x="80.54" y="0">n</tspan><tspan x="102.43" y="0">g </tspan><tspan class="cls-5" x="133.12" y="0">W</tspan><tspan x="167.39" y="0">a</tspan><tspan class="cls-4" x="186.53" y="0">n</tspan><tspan x="208.41" y="0">g</tspan></text><path class="cls-6" d="M91.34,70.15s.28,3.67,6,3.67,6.57-3.67,6.57-3.67.55-4,7.12-4c5.25,0,7,2.44,7.5,3.42,0,.22,0,.57,0,.57s.28,3.67,6,3.67,6.57-3.67,6.57-3.67.55-4,7.12-4S146,70,146,70s-1,3.83,5.75,3.83,7-3.83,7-3.83"/><path class="cls-6" d="M197.77,70.15s.28,3.67,6,3.67,6.57-3.67,6.57-3.67.55-4,7.12-4c5.25,0,7,2.44,7.5,3.42,0,.22,0,.57,0,.57s.28,3.67,6,3.67,6.57-3.67,6.57-3.67.55-4,7.12-4S252.42,70,252.42,70s-1,3.83,5.75,3.83,7-3.83,7-3.83"/></g></svg>