<svg xmlns="http://www.w3.org/2000/svg" viewBox="0 0 299.2 299.2"><defs><style>.cls-1{fill:none;stroke:#231f20;stroke-linecap:round;stroke-miterlimit:10;stroke-width:7px;}</style></defs><g id="Logo"><path class="cls-1" d="M195.2,89.21s-.37-5-8.15-5-8.9,5-8.9,5-.74,5.4-9.64,5.4c-7.11,0-9.49-3.3-10.16-4.63,0-.29,0-.77,0-.77s-.37-5-8.16-5-8.9,5-8.9,5-.74,5.4-9.64,5.4-10.38-5.18-10.38-5.18,1.39-5.19-7.79-5.19S104,89.43,104,89.43"/><line class="cls-1" x1="103.98" y1="182.6" x2="149.59" y2="256.82"/><line class="cls-1" x1="149.59" y1="256.82" x2="195.2" y2="182.6"/><line class="cls-1" x1="149.58" y1="33.72" x2="149.58" y2="256.82"/><circle class="cls-1" cx="149.6" cy="149.6" r="142.51"/></g></svg>