<svg id="Home_Page_Profile" data-name="Home Page Profile" xmlns="http://www.w3.org/2000/svg" viewBox="0 0 612 555"><defs><style>.cls-1,.cls-3,.cls-4{fill:#231f20;}.cls-1,.cls-2,.cls-4{stroke:#231f20;stroke-linejoin:round;stroke-width:2px;}.cls-1{stroke-linecap:round;}.cls-2,.cls-5{fill:#fff;}</style></defs><polyline class="cls-1" points="170.24 430 170.68 143.65 413.27 143.65 413.27 437.77 170.87 437.77 170.68 143.65"/><path class="cls-2" d="M299.85,173.4c7.89,18.66,0,41.49-15.52,53.68-.24.19-.48.38-.73.56a46.54,46.54,0,0,1-25.88,5.83c-11.42-.81-20.74-8.78-27.81-17.62s-12.42-19.13-17.06-29.55a196.64,196.64,0,0,1-11-31l70-22.78,15.38,16.67a18.22,18.22,0,0,1,4.28-3.66l.43.67a26.85,26.85,0,0,1,1.89-1.93c3.52-1.52,7.27-1.13,8.87,5.76,3.38,14.59-7,26.41-7,26.41Z"/><path class="cls-2" d="M299.85,173.4c7.89,18.66,0,41.49-15.52,53.68-.24.19-.48.38-.73.56a49.56,49.56,0,0,1-32.82,9.66c-11.84-.81-21.49-8.78-28.83-17.62s-12.87-19.13-17.69-29.55-8.9-19.15-11.76-30.22l9.34-4.59,60.32-30.87,24.07,25.6a29.92,29.92,0,0,1,5.26-4.5,15.35,15.35,0,0,1,2.32-1.26c3.52-1.52,7.27-1.13,8.87,5.76,3.38,14.59-7,26.41-7,26.41Z"/><path class="cls-2" d="M295,136.53l-1.07,0c-1.53,0-3,0-4.41,0-12.18-.56-20.25-4.73-24.89-8.15a26.42,26.42,0,0,1-4.9-4.53,0,0,0,0,1,0,0l0,0-88.22,47.44-1.72.92-2.07,1.12c.11-5.21,3.72-11.67,8-17.54.95-1.3,1.93-2.57,2.92-3.79a.1.1,0,0,1,0-.05c1.8-2.25,3.63-4.33,5.27-6.12l1-1c2.74-2.93,4.82-4.92,5.23-5.31-1.08.83-2.16,1.62-3.26,2.37-17.69,12.08-37.69,13.8-47.1,13.85-3.41,0-5.43-.17-5.43-.17,8.36-17.73,18.07-28.06,26.23-34,.85-.62,1.68-1.2,2.49-1.73,7.68-5,13.57-6.21,14.91-6.43-3.49.48-6.48.79-9,1a69.55,69.55,0,0,1-8.65.15c-4.69-.27-5.93-1.16-5.93-1.16A125.32,125.32,0,0,1,177.14,94c36.71-23.78,68.91-13.62,68.91-13.62,19.94,4.52,30.44,23.49,30.44,23.49a8.38,8.38,0,0,1,4.76.64,11.85,11.85,0,0,1,4.26,3.5,22.44,22.44,0,0,1,2.85,4.8,23.69,23.69,0,0,1,1.19,3.16,24.26,24.26,0,0,0-7.9-3,10.85,10.85,0,0,0-6.37.56l0,0-.2.11-.07,0,.29.06.2,0c.26.06.62.14,1.05.26A21.11,21.11,0,0,1,285,119a30.68,30.68,0,0,1,5.8,7.38,42.84,42.84,0,0,1,3.09,6.74A33,33,0,0,1,295,136.53Z"/><path class="cls-2" d="M413.28,397.68Q409,371.06,404,344.53c-3.17-17-6.49-33.92-9.72-50.93-2.55-13.43-8.16-27.44-19.91-34.41-11.41-6.78-27.1-6.54-40-7-15.18-.55-30.72,1.29-45.08,6.35a138.27,138.27,0,0,0-22.61,10.18c-7.16,4.07-27.39,10.5-38,22.28-8.53,9.45-9.48,32.8-10,49.57-.3,9.34-8.06,30.49-47.93,34.33-3.56.35-7-1.57-10-3.38-9.57-5.65-16.09-13.94-21.48-23.47-.84-1.47-9.82-18.68-9.8-18.69a423.45,423.45,0,0,0-41.69,18.9s34,85.18,93.9,80.6"/><path class="cls-2" d="M256.75,237.51l10.11,17.89S286.17,243.33,304,239l-9.85-22.48"/><ellipse class="cls-3" cx="223.14" cy="171.41" rx="4.26" ry="5.1" transform="translate(-55.81 134.54) rotate(-30)"/><ellipse class="cls-3" cx="255.48" cy="156.19" rx="4.74" ry="5.67" transform="translate(-43.87 148.66) rotate(-30)"/><path class="cls-3" d="M218.69,158.24c-9.66,1.37-11.29,8.22-11.56,11a.45.45,0,0,0,.76.37L219.07,159A.46.46,0,0,0,218.69,158.24Z"/><path class="cls-3" d="M262.26,141.33c-8.88-4-13.95.86-15.64,3a.46.46,0,0,0,.44.73l15.1-2.89A.46.46,0,0,0,262.26,141.33Z"/><path class="cls-3" d="M251.58,184.14a2.32,2.32,0,0,0-3.92.14,4.25,4.25,0,0,0,.2,5.05,3.92,3.92,0,0,0,4.76,1.4,2.31,2.31,0,0,0,1.08-3.46Z"/><path class="cls-3" d="M251.73,216.2c7.8.88,25.6,1,26.76-15.86a1.28,1.28,0,0,0-1.9-1.22l-25.36,14.72A1.27,1.27,0,0,0,251.73,216.2Z"/><rect class="cls-2" x="76.61" y="262.1" width="12.24" height="39.85" rx="5.42" transform="translate(-118.01 67.35) rotate(-26.73)"/><rect class="cls-2" x="67.38" y="296.07" width="10.84" height="27.52" rx="5.42" transform="translate(-197.76 142.23) rotate(-45)"/><rect class="cls-2" x="70.18" y="277.27" width="12.24" height="39.85" rx="5.42" transform="translate(-125.52 66.08) rotate(-26.73)"/><path class="cls-2" d="M126.7,292.83a6.57,6.57,0,0,1-1.06,3.62l-5.93,9.13a7,7,0,0,1-1.14,1.33,7.91,7.91,0,0,1-.77.56,12.5,12.5,0,0,1-.09,6.64,30.52,30.52,0,0,1-4.09,9.2l5.26,10-22.24,10.6-4.28-10.6s-18-5.46-18-22a22.72,22.72,0,0,1,2.07-9.79A21.23,21.23,0,0,1,82,294.32s0,0,.06,0a23.26,23.26,0,0,1,7.19-4.14c.94-.1,1.84-.18,2.72-.22l1.27-.05-5.52-11.94a6.55,6.55,0,0,1,2.76-8.53,5.73,5.73,0,0,1,2.65-.65,6,6,0,0,1,5.41,3.57q4.68,8.3,9.4,16.58,1.91,3.35,3.83,6.69l3.86-5.95a6,6,0,0,1,8.4-1.84A6.16,6.16,0,0,1,126.7,292.83Z"/><polygon class="cls-3" points="294.58 217.42 297.39 214.03 307.08 237.41 304.04 238.99 294.58 217.42"/><path class="cls-2" d="M265,269.68s24.88-16.89,57.6-17.44l-2-16.29s-3.16.39-5.19.69c0,0-29.19,3.34-56.43,24.33l6.05,8.71"/><path class="cls-4" d="M170.86,437.77c-5.36.43,30.17-30.55,88.84,69.33l236.23-.39c4.17,0,13.34-99-122-115.11C231.68,374.63,170.86,437.77,170.86,437.77Z"/><path class="cls-5" d="M171.86,437.4s-.7-3.84,9.92-3.84,14.79,3.84,14.79,3.84Z"/></svg>